<svg id="Shape_1_1_" xmlns="http://www.w3.org/2000/svg" x="100" viewBox="0 0 100 28.9" preserveAspectRatio="xMaxYMin meet"><style>.st0{fill-rule:evenodd;clip-rule:evenodd;fill:#31124B;}</style><path class="st0" d="M15.9 0H10v3.5h1.6v7.2s-1.5-.4-2.5-.4c-1.4 0-9.2.2-9.2 9.1 0 1.7.6 9.4 10 9.4 4.3 0 5.9-1.1 5.9-1.1V3.5l.1-3.5zm-4.2 24.8s-.9.4-1.9.4-5.4-.2-5.4-6c0-5.1 4.3-5.3 5.1-5.3s2.2.3 2.2.3v10.6zm88.2-.9l-1.6-2.2c-.7 2.2-2.1 2.8-3.1 2.8-1.6 0-1.9-1.5-1.9-2.4V0h-5.9v3.5h1.7v17.7c-1.6 2.9-4.8 4.2-7.9 4.2-5.3 0-5.7-3.3-5.7-3.5 0 0 0-.1.1-.1.3.1 1.7.2 1.8.2 8.1 0 8.3-5.7 8.3-6.3 0-5.5-5.4-5.6-6-5.6-7.7 0-9 6.9-9 9.3 0 2.5.3 9.4 10.2 9.4 4.3 0 7.1-1.5 8.6-3 .7 1.6 2.3 2.7 4.5 2.7 4.2 0 6-3.4 6-4.4l-.1-.2zm-24.8-5.4c0-2.2 1.4-4.8 4-4.8.5 0 2.3.1 2.3 2 0 .4-.1 3.1-4.4 3.1-1.5 0-1.9-.2-1.9-.3zm-32.4-4.6c-.1.1-.1.1-.2.1s-.1-.2-.1-.2v-3h-4s0 3.5-2.9 5.1c-.3.1-.5.3-.8.4-.9-3.4-3.3-6.2-8.2-6.2-6.2 0-8.6 5.1-8.6 9.3 0 4.6 2.4 9.3 8.6 9.3 6 0 8.5-4.9 8.6-9.1 1.3-.4 2.4-.9 3.2-1.6l.1-.1v10.2h4.2v-6.4c0-.8.1-3.3 1.4-5 .7-1 1.8-1.9 3.3-1.9v2.8h3.5v-7c-.2-.2-1-.2-1.3-.2-4.6 0-6.7 3.4-6.8 3.5zM26.6 25.3c-3.2 0-4.2-3.3-4.2-5.8 0-2.4.9-5.7 4.2-5.7 2.2 0 3.3 1.5 3.8 3.3h-2.1v3.3c.5 0 1.1.1 1.7.1h.7c-.3 2.2-1.3 4.8-4.1 4.8zm33-15c-1.1 0-2.5.4-2.5.4V0h-5.8v3.5H53v24.2s1.6 1.1 5.9 1.1c9.3 0 10-7.7 10-9.4-.1-8.9-7.9-9.1-9.3-9.1zM59 25.1c-1 0-1.9-.4-1.9-.4V14.2s1.4-.3 2.2-.3c.8 0 5.1.2 5.1 5.3 0 5.8-4.4 5.9-5.4 5.9z" id="Shape_1"/></svg>