<?xml version="1.0" encoding="UTF-8" standalone="no"?>
<svg width="256px" height="164px" viewBox="0 0 256 164" version="1.1" xmlns="http://www.w3.org/2000/svg" xmlns:xlink="http://www.w3.org/1999/xlink">
    <!-- Generator: Sketch 39.1 (31720) - http://www.bohemiancoding.com/sketch -->
    <title>icon-signup-card</title>
    <desc>Created with Sketch.</desc>
    <defs>
        <filter x="-50%" y="-50%" width="200%" height="200%" filterUnits="objectBoundingBox" id="filter-1">
            <feGaussianBlur stdDeviation="10.974766 -0.040058764" in="SourceGraphic"></feGaussianBlur>
        </filter>
    </defs>
    <g id="Website" stroke="none" stroke-width="1" fill="none" fill-rule="evenodd">
        <g id="Signup---Personal-info-&amp;-viewing-events" transform="translate(-604.000000, -627.000000)">
            <g id="icon-signup-card" transform="translate(626.000000, 627.000000)">
                <rect id="Rectangle-112" fill-opacity="0.115177763" fill="#000000" filter="url(#filter-1)" x="0" y="151" width="212" height="12" rx="6"></rect>
                <g id="Page-1" transform="translate(10.000000, 0.000000)">
                    <rect id="Rectangle-111" fill="#FFFFFF" x="2.55900621" y="33.2459016" width="188.086957" height="120.196721"></rect>
                    <polygon id="Fill-1" fill="#BEA1D6" points="17.9130435 115.081967 172.732919 115.081967 172.732919 101.016393 17.9130435 101.016393"></polygon>
                    <polygon id="Fill-2" fill="#BEA1D6" points="17.9130435 138.098361 172.732919 138.098361 172.732919 124.032787 17.9130435 124.032787"></polygon>
                    <g id="Group-17">
                        <path d="M192.565217,86.9508197 L192.565217,106.290984 L192.565217,119.877049 L192.565217,133.463115 L192.565217,147.04918 C192.565217,147.578557 192.511478,148.096426 192.409118,148.595115 C192.306758,149.095082 192.155776,149.577148 191.961292,150.034918 C191.768087,150.493967 191.530099,150.93 191.253727,151.33918 C190.978634,151.747082 190.663876,152.126852 190.31713,152.474656 C189.969106,152.82118 189.589093,153.135738 189.180932,153.410656 C188.771491,153.686852 188.33518,153.924689 187.875839,154.11777 C187.417776,154.312131 186.935404,154.782689 186.435118,154.884984 C185.936112,154.987279 185.417913,155.360656 184.888199,155.360656 L162.81677,155.360656 L140.745342,155.360656 L118.673913,155.360656 L96.6024845,155.360656 L74.5310559,155.360656 L52.4596273,155.360656 L30.3881988,155.360656 L8.31677019,155.360656 C7.7870559,155.360656 7.26885714,154.987279 6.76985093,154.884984 C6.26956522,154.782689 5.78719255,154.471967 5.32913043,154.277607 C4.86978882,154.084525 4.43347826,153.766131 4.02403727,153.491213 C3.61587578,153.215016 3.23586335,152.86082 2.88783851,152.514295 C2.54109317,152.166492 2.2263354,151.766262 1.95124224,151.358361 C1.67486957,150.950459 1.43688199,150.504197 1.24367702,150.045148 C1.04919255,149.586098 0.89821118,149.100197 0.795850932,148.60023 C0.693490683,148.101541 0.639751553,147.578557 0.639751553,147.04918 L0.639751553,133.463115 L0.639751553,119.877049 L0.639751553,106.290984 L0.639751553,92.704918 L0.639751553,79.1188525 L0.639751553,65.5327869 L0.639751553,51.9467213 L0.639751553,38.3606557 C0.639751553,37.8312787 0.693490683,37.3134098 0.795850932,36.8147213 C0.89821118,36.3147541 1.04919255,35.8326885 1.24367702,35.374918 C1.43688199,34.9158689 1.67486957,34.4798361 1.95124224,34.0706557 C2.2263354,33.6627541 2.54109317,33.2829836 2.88783851,32.9351803 C3.23586335,32.5886557 3.61587578,32.2740984 4.02403727,31.9991803 C4.43347826,31.7229836 4.86978882,31.4851475 5.32913043,31.2920656 C5.78719255,31.0977049 6.26956522,31.2664918 6.76985093,31.1641967 C7.26885714,31.0619016 7.7870559,31.3278689 8.31677019,31.3278689 L30.3881988,31.3278689 L52.4596273,31.3278689 L74.5310559,31.3278689 L96.6024845,31.3278689 L126.670807,31.3278689" id="Stroke-3" stroke="#31124B" stroke-width="3"></path>
                        <path d="M27.8389168,84.5039213 C30.1560969,82.7380525 33.4482584,82.7610689 35.6861093,84.6266754 C37.6322335,86.2480525 40.1311031,87.2249705 42.8628422,87.2249705 C45.5958609,87.2249705 48.0947304,86.2480525 50.0395752,84.6266754 C52.2774261,82.7610689 55.5708671,82.7380525 57.8880472,84.5039213 C59.7369292,85.9143148 61.2313888,87.7696918 62.2076497,89.9051016 C67.2680845,84.3722164 70.0164571,76.6924131 68.8111652,68.3643148 C67.1298981,56.7372 57.5643329,47.5050689 45.8811901,46.2020852 C30.0447801,44.4349377 16.6330286,56.7755607 16.6330286,72.2464131 C16.6330286,79.0579869 19.2560099,85.244282 23.5193143,89.9051016 C24.4942957,87.7696918 25.9887553,85.9143148 27.8389168,84.5039213" id="Fill-5" fill="#31124B"></path>
                        <path d="M42.863354,98.4590164 C50.5326957,98.4590164 57.4113043,95.1497705 62.206882,89.9058689 C61.2319006,87.7691803 59.737441,85.9138033 57.8872795,84.5034098 C55.5713789,82.737541 52.2779379,82.7618361 50.040087,84.6261639 C48.0952422,86.247541 45.5950932,87.224459 42.863354,87.224459 C40.1316149,87.224459 37.6314658,86.247541 35.6866211,84.6261639 C33.4487702,82.7618361 30.1553292,82.737541 27.8394286,84.5034098 C25.9892671,85.9138033 24.4948075,87.7691803 23.5198261,89.9058689 C28.3154037,95.1497705 35.1940124,98.4590164 42.863354,98.4590164" id="Fill-7" fill="#FFFFFF"></path>
                        <path d="M52.4971168,69.6800852 C52.4971168,75.2334295 48.2440484,79.7356918 42.9968062,79.7356918 C37.749564,79.7356918 33.4952161,75.2334295 33.4952161,69.6800852 C33.4952161,64.126741 37.749564,59.6244787 42.9968062,59.6244787 C48.2440484,59.6244787 52.4971168,64.126741 52.4971168,69.6800852" id="Fill-9" fill="#FFFFFF"></path>
                        <polygon id="Fill-11" fill="#BEA1D6" points="153.803439 90.7868852 144.900656 81.8744262 132.315463 82.5048197 139.220942 64.6095738 146.12642 46.7143279 156.870407 50.8547213 167.614395 54.9951148 160.708917 72.8916393"></polygon>
                        <polygon id="Fill-13" fill="#BEA1D6" points="182.705878 90.7868852 191.608661 81.8744262 204.193853 82.5048197 197.288375 64.6095738 190.382897 46.7143279 179.638909 50.8547213 168.894922 54.9951148 175.8004 72.8916393"></polygon>
                        <polygon id="Fill-15" fill="#31124B" points="167.99428 0 173.547323 7.48288525 181.429062 2.51006557 183.901062 11.4915738 193.049509 9.70013115 192.107795 18.9680656 201.285671 20.5996721 197.058193 28.9021967 205.025658 33.736918 198.083075 39.952623 203.765348 47.3383279 195.044255 50.6271148 197.672354 59.5651475 188.351174 59.4833115 187.571957 68.7665902 178.90972 65.3256393 174.828106 73.7010492 167.99428 67.3651475 161.160453 73.7010492 157.078839 65.3256393 148.416602 68.7665902 147.637385 59.4833115 138.316205 59.5651475 140.944304 50.6271148 132.223211 47.3383279 137.905484 39.952623 130.962901 33.736918 138.930366 28.9021967 134.702888 20.5996721 143.880764 18.9680656 142.93905 9.70013115 152.087497 11.4915738 154.559497 2.51006557 162.441236 7.48288525"></polygon>
                    </g>
                </g>
            </g>
        </g>
    </g>
</svg>