<?xml version="1.0" encoding="UTF-8" standalone="no"?>
<svg width="349px" height="189px" viewBox="0 0 349 189" version="1.1" xmlns="http://www.w3.org/2000/svg" xmlns:xlink="http://www.w3.org/1999/xlink">
    <!-- Generator: Sketch 39.1 (31720) - http://www.bohemiancoding.com/sketch -->
    <title>icon-signup-photos</title>
    <desc>Created with Sketch.</desc>
    <defs>
        <filter x="-50%" y="-50%" width="200%" height="200%" filterUnits="objectBoundingBox" id="filter-1">
            <feGaussianBlur stdDeviation="33.5294118 0" in="SourceGraphic"></feGaussianBlur>
        </filter>
    </defs>
    <g id="Website" stroke="none" stroke-width="1" fill="none" fill-rule="evenodd">
        <g id="Signup---Apt-images" transform="translate(-581.000000, -616.000000)">
            <g id="icon-signup-photos" transform="translate(639.000000, 618.000000)">
                <ellipse id="Oval-19" fill-opacity="0.12927423" fill="#000000" filter="url(#filter-1)" cx="116.5" cy="179.5" rx="102.5" ry="7.5"></ellipse>
                <g>
                    <path d="M126.892086,145.606136 C127.658694,150.571282 124.258956,155.220988 119.298732,155.988356 L29.4632282,169.891979 C24.5030043,170.659347 19.8579076,167.256235 19.0913,162.291089 L0.107913977,39.3938643 C-0.658693631,34.4287181 2.74104446,29.7790119 7.70126839,29.0116436 L97.5367718,15.1080211 C102.496996,14.3406527 107.142092,17.7437645 107.9087,22.7089107 L126.892086,145.606136 Z" id="Fill-3" stroke="#69299E" stroke-width="2" fill="#ECD7FF"></path>
                    <polygon id="Fill-5" fill="#996EBC" points="113 111.072737 22.5222278 125 9 37.9272629 99.4777722 24"></polygon>
                    <path d="M107.701933,155.988356 L197.536938,169.891979 C202.497134,170.659347 207.142205,167.256235 207.908808,162.291089 L226.892089,39.3938643 C227.658693,34.4287181 224.258973,29.7790119 219.295747,29.0116436 L129.463772,15.1080211 C124.500545,14.3406527 119.858504,17.7437645 119.088871,22.7089107 L100.10862,145.606136 C99.3389869,150.571282 102.741736,155.220988 107.701933,155.988356" id="Fill-7" stroke="#69299E" stroke-width="2" fill="#ECD7FF"></path>
                    <polygon id="Fill-9" fill="#996EBC" points="115 111.072737 205.477772 125 219 37.9272629 128.522228 24"></polygon>
                    <path d="M58.1363636,176 C53.0900455,176 49,171.92469 49,166.896552 L49,9.10344828 C49,4.07531034 53.0900455,0 58.1363636,0 L173.863636,0 C178.909955,0 183,4.07531034 183,9.10344828 L183,166.896552 C183,171.92469 178.909955,176 173.863636,176 L58.1363636,176 Z" id="Fill-11" stroke="#521D7F" stroke-width="3" fill="#FFFFFF"></path>
                    <polygon id="Fill-13" fill="#996EBC" points="58 140 125 140 125 134 58 134"></polygon>
                    <path d="M130.017684,105 C143.720947,99.299829 158.517053,95.7094813 174,94.5603268 L174,9 L58,9 L58,98.901577 C67.1029474,95.8189246 76.8469474,94.1225537 87,94.1225537 C102.580632,94.1225537 117.236316,98.065552 130.017684,105" id="Fill-15" fill="#996EBC"></path>
                    <polygon id="Fill-16" fill="#996EBC" points="58 152 137 152 137 146 58 146"></polygon>
                    <path d="M112.642424,39.024 C110.309091,33.717 104.975758,30 98.7575758,30 C91.4272727,30 85.3151515,35.151 83.9090909,42 L82.0909091,42 C77.069697,42 73,46.029 73,51 C73,55.971 77.069697,60 82.0909091,60 L112.393939,60 C118.251515,60 123,55.299 123,49.5 C123,43.785 118.381818,39.159 112.642424,39.024" id="Fill-17" fill="#FFFFFF"></path>
                    <path d="M151.207954,121 L174,121 L174,94 C158.160825,95.14952 143.018186,98.7505364 129,104.467645 C137.252238,108.858385 144.72673,114.456578 151.207954,121" id="Fill-18" fill="#31124B"></path>
                    <path d="M129.462967,104.734 C116.780047,97.891 102.237248,94 86.7766269,94 C76.7017784,94 67.0328317,95.674 58,98.716 L58,121 L100.44401,121 L151,121 C144.714579,114.562 137.465898,109.051 129.462967,104.734" id="Fill-19" fill="#5C1498"></path>
                </g>
            </g>
        </g>
    </g>
</svg>