<?xml version="1.0" encoding="UTF-8" standalone="no"?>
<svg width="282px" height="208px" viewBox="0 0 282 208" version="1.1" xmlns="http://www.w3.org/2000/svg" xmlns:xlink="http://www.w3.org/1999/xlink">
    <!-- Generator: Sketch 39.1 (31720) - http://www.bohemiancoding.com/sketch -->
    <title>icon-signup-folder</title>
    <desc>Created with Sketch.</desc>
    <defs>
        <polygon id="path-1" points="0 201 140 201 140 0 0 0"></polygon>
        <filter x="-50%" y="-50%" width="200%" height="200%" filterUnits="objectBoundingBox" id="filter-3">
            <feGaussianBlur stdDeviation="33.5294118 0" in="SourceGraphic"></feGaussianBlur>
        </filter>
    </defs>
    <g id="Website" stroke="none" stroke-width="1" fill="none" fill-rule="evenodd">
        <g id="Signup---Apt-info" transform="translate(-600.000000, -593.000000)">
            <g id="icon-signup-folder" transform="translate(671.000000, 593.000000)">
                <g id="Page-1">
                    <path d="M5.20754717,199 C3.43954717,199 2,197.564475 2,195.798561 L2,24.2014388 C2,22.4368058 3.43954717,21 5.20754717,21 L134.792453,21 C136.561736,21 138,22.4368058 138,24.2014388 L138,195.798561 C138,197.564475 136.561736,199 134.792453,199 L5.20754717,199 L5.20754717,199 Z" id="Fill-1" fill="#FFFFFF"></path>
                    <path d="M134.862385,19 L5.13761468,19 C2.30036697,19 0,21.295507 0,24.1267606 L0,195.873239 C0,198.704493 2.30036697,201 5.13761468,201 L134.862385,201 C137.699633,201 140,198.704493 140,195.873239 L140,24.1267606 C140,21.295507 137.699633,19 134.862385,19 M134.718447,23 C135.424583,23 136,23.5744559 136,24.2794118 L136,195.720588 C136,196.425544 135.424583,197 134.718447,197 L5.2815534,197 C4.57541748,197 4,196.425544 4,195.720588 L4,24.2794118 C4,23.5744559 4.57541748,23 5.2815534,23 L134.718447,23" id="Fill-3" fill="#31124B"></path>
                    <path d="M14.2855503,187 C13.9307384,187 13,186.154545 13,185.800992 L13,33.1990083 C13,32.8454545 13.9307384,32 14.2855503,32 L124.842877,32 C125.196404,32 124.842877,32.8454545 124.842877,33.1990083 L124.842877,171.790785 C124.842877,171.968843 125.089703,172.139215 124.959862,172.259628 L109.970346,186.549091 C109.850789,186.660537 109.855932,187 109.692667,187 L14.2855503,187 Z" id="Fill-5" fill="#D0BFE2"></path>
                    <path d="M125.422222,31 L14.5777778,31 C13.1535556,31 12,32.0607073 12,33.4711545 L12,185.528846 C12,186.939293 13.1535556,188 14.5777778,188 L110.232667,188 C110.883556,188 111.509956,187.797049 111.986844,187.359236 L127.175111,173.419423 C127.700978,172.936935 128,172.279577 128,171.569886 L128,33.4711545 C128,32.0607073 126.846444,31 125.422222,31 M124,35 L124,170.871444 L109.629571,184 L16,184 L16,35 L124,35" id="Fill-7" fill="#482866"></path>
                    <path d="M48.9285714,36 C47.8652857,36 47,35.1485767 47,34.1023256 L47,17.655814 C47,15.9124837 48.4425714,14.4930233 50.2142857,14.4930233 L62.8271429,14.4930233 L62.3951429,12.2436465 C62.273,11.6098233 62.3257143,10.9114791 62.3758571,10.2384372 C62.4041429,9.85763721 62.4285714,9.50593488 62.4285714,9.1959814 C62.4285714,5.29436279 65.6672857,2 69.5,2 C70.6828571,2 71.876,2.30489302 73.0434286,2.90455814 C75.2085714,4.01659535 76.5611429,6.4064 76.5714286,9.14284651 C76.5727143,9.44267907 76.5971429,9.78805581 76.6228571,10.1625302 C76.6717143,10.8381023 76.727,11.6034977 76.6048571,12.2436465 L76.1728571,14.4930233 L88.7857143,14.4930233 C90.5587143,14.4930233 92,15.9124837 92,17.655814 L92,34.1023256 C92,35.1485767 91.1347143,36 90.0714286,36 L48.9285714,36 Z" id="Fill-9" fill="#9C79FF"></path>
                    <path d="M69.5,0 C64.5148947,0 60.4736842,4.22420084 60.4736842,9.14162343 C60.4736842,10.0269121 60.2299737,11.2887029 60.4736842,12.5606695 L50.1578947,12.5606695 C47.3094474,12.5606695 45,14.8387615 45,17.6485356 L45,34.1841004 C45,36.291749 46.7317632,38 48.8684211,38 L90.1315789,38 C92.2682368,38 94,36.291749 94,34.1841004 L94,17.6485356 C94,14.8387615 91.6905526,12.5606695 88.8421053,12.5606695 L78.5263158,12.5606695 C78.7674474,11.2976067 78.5301842,9.96585774 78.5263158,9.081841 C78.5134211,5.78490377 76.9118947,2.65077824 73.9486842,1.12569038 C72.4374211,0.347246862 70.9300263,0 69.5,0 M69.5,4 L69.5,4 C70.366125,4 71.2553125,4.22994764 72.1419375,4.68481675 C73.6653438,5.46387435 74.6173125,7.20041885 74.625,9.21591623 C74.6262813,9.55141361 74.650625,9.93842932 74.681375,10.3593717 C74.722375,10.9147644 74.7672188,11.5455497 74.691625,11.9388482 L73.830625,16.408377 L78.46875,16.408377 L88.71875,16.408377 C89.4247188,16.408377 90,16.9725654 90,17.6649215 L90,34 L49,34 L49,17.6649215 C49,16.9725654 49.5752813,16.408377 50.28125,16.408377 L60.53125,16.408377 L65.169375,16.408377 L64.308375,11.9388482 C64.2340625,11.5518325 64.2763438,10.9851309 64.3173438,10.4360209 C64.3455313,10.057801 64.375,9.66827225 64.375,9.26115183 C64.375,7.89905759 64.9400313,6.54324607 65.9253125,5.54052356 C66.901625,4.54659686 68.1713438,4 69.5,4" id="Fill-11" fill="#31124B"></path>
                    <path d="M28.6388889,74 C28.2862222,74 28,73.7170526 28,73.3684211 L28,50.6315789 C28,50.2829474 28.2862222,50 28.6388889,50 L50.3611111,50 C50.7137778,50 51,50.2829474 51,50.6315789 L51,73.3684211 C51,73.7170526 50.7137778,74 50.3611111,74 L28.6388889,74 Z" id="Fill-13" fill="#FFFFFF"></path>
                    <path d="M50.4285714,48 L28.5714286,48 C27.1507143,48 26,49.1390909 26,50.5454545 L26,73.4545455 C26,74.8609091 27.1507143,76 28.5714286,76 L50.4285714,76 C51.8492857,76 53,74.8609091 53,73.4545455 L53,50.5454545 C53,49.1390909 51.8492857,48 50.4285714,48 L50.4285714,48 Z M30,72 L49,72 L49,52 L30,52 L30,72 Z" id="Fill-15" fill="#31134B"></path>
                    <mask id="mask-2" fill="white">
                        <use xlink:href="#path-1"></use>
                    </mask>
                    <g id="Clip-18"></g>
                    <polygon id="Fill-17" fill="#B495D8" mask="url(#mask-2)" points="62 53 112 53 112 48 62 48"></polygon>
                    <polygon id="Fill-19" fill="#B495D8" mask="url(#mask-2)" points="62 65 112 65 112 60 62 60"></polygon>
                    <polygon id="Fill-20" fill="#B495D8" mask="url(#mask-2)" points="62 77 112 77 112 72 62 72"></polygon>
                    <polygon id="Fill-21" fill="#B495D8" mask="url(#mask-2)" points="26 89 112 89 112 84 26 84"></polygon>
                    <polygon id="Fill-22" fill="#B495D8" mask="url(#mask-2)" points="26 101 112 101 112 96 26 96"></polygon>
                    <polygon id="Fill-23" fill="#B495D8" mask="url(#mask-2)" points="26 112 112 112 112 107 26 107"></polygon>
                    <polygon id="Fill-24" fill="#B495D8" mask="url(#mask-2)" points="26 125 112 125 112 120 26 120"></polygon>
                    <polygon id="Fill-25" fill="#B495D8" mask="url(#mask-2)" points="26 137 112 137 112 132 26 132"></polygon>
                    <polygon id="Fill-26" fill="#B495D8" mask="url(#mask-2)" points="26 148 112 148 112 143 26 143"></polygon>
                    <polygon id="Fill-27" fill="#B495D8" mask="url(#mask-2)" points="26 160 112 160 112 155 26 155"></polygon>
                    <polygon id="Fill-28" fill="#B495D8" mask="url(#mask-2)" points="26 171 95 171 95 166 26 166"></polygon>
                    <polygon id="Fill-29" fill="#482866" mask="url(#mask-2)" points="110 188.064 110.069 188 110 188"></polygon>
                    <polygon id="Fill-30" fill="#996EBC" mask="url(#mask-2)" points="110.069 188 110 188 110 188.064"></polygon>
                    <polygon id="Fill-31" fill="#482866" mask="url(#mask-2)" points="107 188 110.9375 188 110.9375 172.8 128 172.8 128 169 107 169"></polygon>
                </g>
                <ellipse id="Oval-19-Copy" fill-opacity="0.12927423" fill="#000000" filter="url(#filter-3)" cx="70" cy="202" rx="70" ry="6"></ellipse>
            </g>
        </g>
    </g>
</svg>