<svg xmlns="http://www.w3.org/2000/svg">
    <defs>
        <style>
        .cls-1 {
            fill: #31124b;
        }
        </style>
    </defs>
    <symbol id="dorbel-benefit-calendar" viewBox="0 0 152 159.5">
        <path fill="#31124B" d="M144 12.5c2.8 0 5 2.2 5 5v134c0 2.8-2.2 5-5 5H8c-2.8 0-5-2.2-5-5v-134c0-2.8 2.2-5 5-5h136m0-3H8c-4.4 0-8 3.6-8 8v134c0 4.4 3.6 8 8 8h136c4.4 0 8-3.6 8-8v-134c0-4.4-3.6-8-8-8z" />
        <path fill="none" stroke="#31124B" stroke-width="3" stroke-miterlimit="10" d="M1 43h150" />
        <path fill="#BEA1D6" d="M13 54.5h24v24H13zm34 0h24v24H47zm34 0h24v24H81zm34 0h24v24h-24zm-102 34h24v24H13zm34 0h24v24H47zm34 0h24v24H81zm34 0h24v24h-24zm-102 34h24v24H13zm34 0h24v24H47zm34 0h24v24H81zm34 0h24v24h-24z" />
        <path fill="none" stroke="#31124B" stroke-width="3" stroke-linecap="round" stroke-miterlimit="10" d="M144 55.5l-15.9 15.9-7.2-6.8M76 123.5l-15.9 15.9-7.2-6.8M42 89.5l-15.9 15.9-7.2-6.8" />
        <g fill="none" stroke="#31124B" stroke-width="3" stroke-linecap="round" stroke-miterlimit="10">
            <path d="M16.6 15.4c-.4-1.2-.6-2.5-.6-3.9s.2-2.7.6-3.9c.4-1.2.9-2.3 1.6-3.2.7-.9 1.5-1.6 2.4-2.1s1.9-.8 2.9-.8 2 .3 2.9.8 1.7 1.2 2.4 2.1c.7.9 1.2 2 1.6 3.2.4 1.2.6 5.5.6 6.9m0 0c0-1.4.2-5.7.6-6.9.4-1.2.9-2.3 1.6-3.2.7-.9 1.5-1.6 2.4-2.1.9-.5 1.9-.8 2.9-.8s2 .3 2.9.8c.9.5 1.7 1.2 2.4 2.1.7.9 1.2 2 1.6 3.2s.6 5.5.6 6.9m0 0c0-1.4.2-5.7.6-6.9s.9-2.3 1.6-3.2c.7-.9 1.5-1.6 2.4-2.1.9-.5 1.9-.8 2.9-.8s2 .3 2.9.8c.9.5 1.7 1.2 2.4 2.1.7.9 1.2 2 1.6 3.2s.6 5.5.6 6.9m0 0c0-1.4.2-5.7.6-6.9s.9-2.3 1.6-3.2c.7-.9 1.5-1.6 2.4-2.1.9-.5 1.9-.8 2.9-.8s2 .3 2.9.8c.9.5 1.7 1.2 2.4 2.1.7.9 1.2 2 1.6 3.2.4 1.2.6 5.5.6 6.9" />
            <path d="M76 14.5c0-1.4.2-5.7.6-6.9.4-1.2.9-2.3 1.6-3.2.7-.9 1.5-1.6 2.4-2.1.9-.5 1.9-.8 2.9-.8s2 .3 2.9.8c.9.5 1.7 1.2 2.4 2.1.7.9 1.2 2 1.6 3.2.4 1.2.6 5.5.6 6.9m0 0c0-1.4.2-5.7.6-6.9.4-1.2.9-2.3 1.6-3.2.7-.9 1.5-1.6 2.4-2.1.9-.5 1.9-.8 2.9-.8s2 .3 2.9.8c.9.5 1.7 1.2 2.4 2.1.7.9 1.2 2 1.6 3.2.4 1.2.6 5.5.6 6.9m0 0c0-1.4.2-5.7.6-6.9.4-1.2.9-2.3 1.6-3.2.7-.9 1.5-1.6 2.4-2.1.9-.5 1.9-.8 2.9-.8s2 .3 2.9.8c.9.5 1.7 1.2 2.4 2.1.7.9 1.2 2 1.6 3.2.4 1.2.6 5.5.6 6.9m0 0c0-1.4.2-5.7.6-6.9.4-1.2.9-2.3 1.6-3.2.7-.9 1.5-1.6 2.4-2.1.9-.5 1.9-.8 2.9-.8s2 .3 2.9.8c.9.5 1.7 1.2 2.4 2.1s1.2 2 1.6 3.2.6 2.5.6 3.9-.2 2.7-.6 3.9" />
        </g>
    </symbol>
    <symbol id="dorbel-benefit-camera" viewBox="0 0 203 142.5">
        <path fill="#31124B" d="M152 50c2.8 0 5 2.2 5 5v69.5c0 2.8-2.5 4.5-5.3 4.5H8.2c-2.8 0-5.2-1.8-5.2-4.5V55c0-2.8 2.4-5 5.2-5H152m-.3-3H8.2C3.7 47 0 50.6 0 55v69.5c0 4.4 3.7 7.5 8.2 7.5h143.6c4.4 0 8.3-3.1 8.3-7.5V55c0-4.4-3.7-8-8.1-8h-.3z" />
        <path fill="none" stroke="#31124B" stroke-width="3" stroke-miterlimit="10" d="M0 77.5h19m121 0h19" />
        <circle fill="#FFF" stroke="#31124B" stroke-width="3" stroke-miterlimit="10" cx="79.7" cy="89.9" r="51.1" />
        <g stroke="#31124B" stroke-width="3" stroke-miterlimit="10">
            <circle fill="#BEA1D6" cx="79.7" cy="89.9" r="28.4" />
            <path fill="none" stroke-linecap="round" d="M69 100.6c-2.7-2.7-4.4-6.5-4.4-10.7s1.7-8 4.4-10.7" />
        </g>
        <path fill="#31124B" d="M27 47H13v-6c0-1.1.9-2 2-2h10c1.1 0 2 .9 2 2v6zm0-11H13c-1.7 0-3 1.3-3 3v11h20V39c0-1.7-1.3-3-3-3z" />
        <path fill="#D8C7E6" d="M16 47h-3v-6c0-1.1.9-2 2-2h1v8z" />
        <path fill="#31124B" d="M172 0c1.5 5 5.5 9 10.5 10.5-5 1.5-9 5.5-10.5 10.5-1.5-5-5.5-9-10.5-10.5 5-1.5 9-5.5 10.5-10.5zm-28 10c2.1 6.7 7.3 11.9 14 14-6.7 2.1-11.9 7.3-14 14-2.1-6.7-7.3-11.9-14-14 6.7-2.1 11.9-7.3 14-14zm41 18c2.7 8.6 9.4 15.3 18 18-8.6 2.7-15.3 9.4-18 18-2.7-8.6-9.4-15.3-18-18 8.6-2.7 15.3-9.4 18-18z" />
    </symbol>
    <symbol id="dorbel-benefit-id" viewBox="0 0 164.2 148.9">
        <path fill="#FFF" stroke="#31124B" stroke-width="3" stroke-miterlimit="10" d="M148.5 86.9v54.3c0 3.1-1.8 6.2-5 6.2H7.5c-3.2 0-6-3-6-6.2V45.6c0-3.1 2.8-5.2 6-5.2H91" />
        <path fill="#BEA1D6" d="M14 95.9h121v7H14zm0 16h121v7H14zm0 16h121v7H14z" />
        <path fill="#31124B" d="M21.8 81c1.8-1.4 4.4-1.4 6.1.1 1.5 1.3 3.5 2 5.6 2s4.1-.8 5.6-2c1.7-1.5 4.3-1.5 6.1-.1 1.4 1.1 2.6 2.6 3.4 4.2 4-4.3 6.1-10.3 5.2-16.8-1.3-9.1-8.8-16.3-17.9-17.3C23.5 49.7 13 59.3 13 71.4c0 5.3 2 10.2 5.4 13.8.7-1.6 1.9-3.1 3.4-4.2z" />
        <path fill="#FFF" d="M33.5 91.9c6 0 11.4-2.6 15.1-6.7-.8-1.7-1.9-3.1-3.4-4.2-1.8-1.4-4.4-1.4-6.1.1-1.5 1.3-3.5 2-5.6 2s-4.1-.8-5.6-2c-1.7-1.5-4.3-1.5-6.1-.1-1.4 1.1-2.6 2.6-3.4 4.2 3.7 4.1 9.1 6.7 15.1 6.7z" />
        <ellipse fill="#FFF" cx="33.6" cy="69.4" rx="7.4" ry="7.9" />
        <path fill="#BEA1D6" d="M116.4 84.9l-8.4-8.3-11.7.6 6.4-16.8 6.5-16.7 10 3.9 10.1 3.8-6.5 16.8m20.6 16.7l8.3-8.3 11.8.6-6.5-16.8-6.5-16.7-10 3.9-10 3.8 6.4 16.8" />
        <path fill="#31124B" d="M129.6 0l5.2 7 7.4-4.7 2.3 8.5 8.5-1.7-.8 8.6 8.5 1.6-3.9 7.7 7.4 4.6-6.5 5.8 5.4 6.9-8.2 3.1 2.5 8.3-8.7-.1-.8 8.7-8.1-3.2-3.8 7.8-6.4-5.9-6.4 5.9-3.8-7.8-8.1 3.2-.7-8.7-8.7.1 2.4-8.3-8.1-3.1 5.3-6.9-6.5-5.8 7.4-4.6-3.9-7.7 8.6-1.6-.9-8.6 8.5 1.7 2.4-8.5 7.3 4.7" />
    </symbol>
    <symbol id="dorbel-benefit-skip" viewBox="0 0 186.97 148.91">
        <title>dorbel-benefit-skip</title>
        <path d="M64.5 29.99v43.2a.91.91 0 0 0 1.4.4l25.1-22-25.2-22a.81.81 0 0 0-1.3.4z" fill="#31124b" />
        <path d="M89.5 29.99v43.2a.73.73 0 0 0 1.2.4l25-22-25-22a.73.73 0 0 0-1.2.4z" fill="#31124b" />
        <path d="M56 117.49a3.55 3.55 0 0 1-1-.2 2.53 2.53 0 0 1-1.5-2.3v-13.8l-6.5-.3a26.68 26.68 0 0 1-26.5-26.5c-.1-1.1-.9-11.9 4.1-16.6a1.45 1.45 0 1 1 2 2.1c-3.4 3.2-3.4 11.4-3.2 14.3v.1A23.64 23.64 0 0 0 47 97.89c2.7.2 5.4.3 8 .4l1.4.1v15.4l13.3-14.8h.7c19.4.4 41 .1 59.3-1a23.66 23.66 0 0 0 23.7-23.6v-45.1a25.26 25.26 0 0 0-24-25.2l-9.9-.4c-20.6-.9-41.5-.9-62.1 0l-9.9.4a25.12 25.12 0 0 0-24 25.2v.1c-.4 5.2 0 14.2 2.8 16.4a1.492 1.492 0 1 1-1.9 2.3c-4.9-3.9-4.1-17.2-3.9-19A28.09 28.09 0 0 1 47.4.99l9.9-.4c20.7-.8 41.7-.8 62.4.1l9.9.4a28.09 28.09 0 0 1 26.9 28.1v44.9a26.59 26.59 0 0 1-26.6 26.6c-18.1 1.1-39.5 1.5-58.8 1.1l-13.4 14.9a2.46 2.46 0 0 1-1.7.8z" fill="#31124b" />
        <path d="M0 50.29l41 1a1.5 1.5 0 0 0 0-3l-41 1M7 57.29l42 1a1.5 1.5 0 0 0 0-3l-42 1M122 72.79a2.48 2.48 0 0 1-2.5-2.5v-38a2.5 2.5 0 1 1 5 0v38a2.48 2.48 0 0 1-2.5 2.5z" fill="#31124b" />
        <g fill="#5c1598">
            <path d="M122.6 140.29a4.51 4.51 0 0 1-.3 1.1 4 4 0 0 1-1 2.9c-.7 1.1-2.3 1.5-3.3 2.5a6.25 6.25 0 0 1-2 1h-.7a10.08 10.08 0 0 1-2.6.9 5.7 5.7 0 0 1-1.3.1c-.1 0-.3.1-.4.1a8.39 8.39 0 0 1-3.1-.5c-1.2-.3-1.7-1.7-1.9-2.7a4 4 0 0 1 .4-2 3.18 3.18 0 0 1 1-1c1.2-.2 2.4.6 3.7.9a6.15 6.15 0 0 0 1.4.1 3.8 3.8 0 0 0 2.1.2 3.33 3.33 0 0 0 1.5-.5 4.06 4.06 0 0 0 0-1.9c-.1-.6-.2-1.1-.3-1.7v-.4a5.33 5.33 0 0 0-1.4-2.8c-.2-.1-.4 0-.6-.1a1.43 1.43 0 0 0-1.1-.3l-.5.1a13.66 13.66 0 0 1-1.9-.2 4.87 4.87 0 0 1-1.2-.1 7.72 7.72 0 0 1-4.9-5.7 9.84 9.84 0 0 1 .5-5.1 1.76 1.76 0 0 1 .4-.5 2.61 2.61 0 0 1 .3-.8 9.2 9.2 0 0 1 2.5-1.9 6.36 6.36 0 0 0 1.8-.6c1.2 0 2.4-.3 3.5-.4l1.8-.3c.7-.1 1.3-.1 2-.2.4.5.6 1.1 1 1.5a4.45 4.45 0 0 1 .6 1.2 1.64 1.64 0 0 1-.1 1v1.2a2 2 0 0 1-1.3 1.5h-.5a4.57 4.57 0 0 0-2.6-.2c-.3.1-.6-.2-.9-.1a4.33 4.33 0 0 0-.5.1 4.48 4.48 0 0 1-1.1.1l-1.2.3a1.7 1.7 0 0 0-.7-.1 1 1 0 0 0-.7 1.3c.2 1.3 1.3 1.9 3.1 2.3a22.83 22.83 0 0 1 5.3 1.3c.6.4 1.5.4 2.2.9a4.71 4.71 0 0 1 2.1 2.3 9.63 9.63 0 0 1 .7 1.8c.1 2.1.2 2.7.2 3.4zm-13.9-7.9a2.28 2.28 0 0 0-.8-.9 8.7 8.7 0 0 1-.9-1.1l.1.5a2.4 2.4 0 0 0 1.1 1.5h.5zm1.8-7.9l-.1-.3a4 4 0 0 0-1.1 0h-.2a2.19 2.19 0 0 0-1 .9c.4-.1.7-.3 1.1-.4s.6-.1.9-.1a.76.76 0 0 1 .4-.1zm2.4 21.8a.38.38 0 0 0-.2-.2 23.25 23.25 0 0 1-3.6-.8c-.3 0-.4.2-.3.4.2 1 1.2.8 1.9 1a1.1 1.1 0 0 0 .8 0c.5-.1 1-.3 1.4-.4zm-2.7-13.6l-.2-.1v.2h.1zm1.5-8.2c-.1-.1-.2-.2-.3-.1a.53.53 0 0 0-.3.2c0 .1.1.2.3.1a.77.77 0 0 0 .3-.2zm.5-.1a3.33 3.33 0 0 0 1.4-.1 1.7 1.7 0 0 0-.7-.1 6.37 6.37 0 0 0-.7.2zm1.8 9.7a2.57 2.57 0 0 0-.2-.5 6.15 6.15 0 0 0-1.4-.1 7.58 7.58 0 0 0 1.6.6zm3.1.5a4.88 4.88 0 0 0-.7-.3 2.39 2.39 0 0 1-.9-.2 7.54 7.54 0 0 0-1.3-.6l-.1.7a10.41 10.41 0 0 0 1.6.6 2 2 0 0 0 .8.1.86.86 0 0 1 .6-.3zm-1.3-10.2v-.2c-.4.1-.7.1-1.1.2a1.28 1.28 0 0 0 1 .4.76.76 0 0 0 .1-.4zm3.1 14.9a5.78 5.78 0 0 0-.5-1.4v1.3a1.42 1.42 0 0 0 .2.6l.3-.2v-.3zm.1 1.3l-.1-.5h-.2c0 .5-.1 1.4-.1 1.9a.85.85 0 0 0 .5-.3zM143.3 143.59c-.4.1-.9-.6-1.1-.5a12.73 12.73 0 0 0-1.3-1.9 3.6 3.6 0 0 1-.8-1.2c-.2-.3-.5-.6-.7-.9a24.76 24.76 0 0 0-2.7-3.9 28.2 28.2 0 0 0-2.8-3.6c-.6.9-1.7 1.7-1.9 2.2a3.38 3.38 0 0 1-.6 1.2 1.09 1.09 0 0 1 .1.5 7.57 7.57 0 0 1 .1 1.5c.2 1.3.7 2.5.9 3.9.2 1 .2 1.8.4 2.8a1.94 1.94 0 0 1-.3 1.6 5.72 5.72 0 0 0-1.4.1c-.8.1-1 .4-1.7.5a1.09 1.09 0 0 1-1.3-.5 8.55 8.55 0 0 1 0-1.6c-.2-1.3-.4-2.8-.5-3.3s-.2-.8-.7-3.9c-.1-.7-.1-1.4-.2-2.2a28 28 0 0 0-.6-2.8 3.4 3.4 0 0 1-.1-1c-.1-.5-.4-1.1-.5-1.7s0-1.4-.1-2.1-.3-1.2-.6-3.4c-.1-.8-.2-1.7-.3-2.4l-.3-.9c-.1-.6 2.2-1 3-1.1a1.66 1.66 0 0 1 1.9 1.2 15.93 15.93 0 0 1 .2 1.7c.1.9.1 1.8.2 2.7s.5 2.1.7 3.1a11 11 0 0 1 .2 1.8 31 31 0 0 1 2.3-3.1 30.39 30.39 0 0 0 2.5-3.1c.3-.5.9-1.1 1.2-1.6s1-1.5 1.6-2.2c.5-.5 1.3-1.2 1.8-1.7a2.74 2.74 0 0 1 2.3.9 3.53 3.53 0 0 1 .8 1.3c.1.4-.8 1.1-.9 1.6-.8 1-2.1 2.7-2.9 3.6a14.29 14.29 0 0 1-1.9 2.6 4.35 4.35 0 0 1-.4.7 3.69 3.69 0 0 0 .9 1.4c.9 1 1.6 2.2 2.6 3.2 1 1.3 1.8 2.6 2.8 4 1.5 1.8 2.4 2.5 2.5 2.9a12.49 12.49 0 0 0 .9 1.2c.1.5-1.3 2-1.7 2a9.36 9.36 0 0 1-1.6.4zm-14.9-11.2a.35.35 0 0 0 .1.2.255.255 0 0 0-.1-.5v.3zm.8 6.4a7.72 7.72 0 0 0 .2 1.5c.2 1 .2 1.2.4 2.2l.5 1.2a8.2 8.2 0 0 0-.2-2.2c-.1-.6-.2-1.9-.3-2.5 0-.2-.1-.6-.1-.8l-.3-1.5c-.1-.7-.2-1.8-.3-2.4a4.67 4.67 0 0 0-.5-1 5.63 5.63 0 0 0 0 1.3c.2 1.1.3 2.5.4 3.5a1.44 1.44 0 0 1 .2.7zm6.4-12.2a13.14 13.14 0 0 1 1.7-2 4.18 4.18 0 0 1 .8-1.2c.7-.6 1-.9.9-1.1-.5.1-2.3 2.5-3.2 3.2a2.08 2.08 0 0 1-.5 1.2zm3.4 8.3c.6.9 1.8 3.3 2.4 3.7.6.8 1.3 2.2 1.8 2.1a12.29 12.29 0 0 0-2.1-3.3c-.5-.5-1.8-2.6-2.1-2.5zM155.1 139.29a2.61 2.61 0 0 1-.7 1.7 13.07 13.07 0 0 1-2.7 1.2 1.26 1.26 0 0 1-1.7-1.3c-.1-.6.2-1.6.1-2.3a4.33 4.33 0 0 1-.1-.5 3.75 3.75 0 0 1 .1-1.1c-.1-.9-.5-1.7-.6-2.5a7.08 7.08 0 0 1-.1-1.4c-.1-.6-.3-1.2-.4-1.8a1.7 1.7 0 0 0-.1-.7 5.07 5.07 0 0 1-.2-1.3c0-.4-.1-.8-.1-1.2-.2-1.4-.7-2.8-1-4.2a3.08 3.08 0 0 0-.1-1c-.2-1-.5-2-.7-3-.1-.6-.2-1.5-.3-2a3.89 3.89 0 0 1 .2-1.5l.7-.3a8.48 8.48 0 0 0 1.6 0 3.82 3.82 0 0 1 2.7.7 10.28 10.28 0 0 1 .1 1.7 1.08 1.08 0 0 0 .3.7 23 23 0 0 0 .2 3.7c.1.6.3 1.3.4 1.9.1.3 0 .7.1 1a3.09 3.09 0 0 0 .2.8c.3 1.6.3 3.3.6 5.2a10.55 10.55 0 0 0 .5 1.9 24.75 24.75 0 0 1 .6 2.9zm-4.5-14.5a14.34 14.34 0 0 0-.7-2.8c-.3-.9-.2-1.9-.8-2.8a12 12 0 0 0 .1 3.3 18.73 18.73 0 0 0 1.2 4.8 4.87 4.87 0 0 1 .4 1.1 2.35 2.35 0 0 0 .2-.8c-.1-.3-.1-.6-.2-1-.1-.6-.1-1-.2-1.8zm.4 5.5a.6.6 0 0 0 .1.4 3.08 3.08 0 0 0 .1-1 1.69 1.69 0 0 0-.2-.5v1.1zm1.1 4.2a4.88 4.88 0 0 0-.4-1.1v.5c.1.5.2.9.3 1.3a1.48 1.48 0 0 0 .1-.7zM166.8 112.29a2.74 2.74 0 0 1 1.3.2c.7.3 1.5 0 2.2.3a4.28 4.28 0 0 1 1.6.5c.8.9 2.1 2.3 2.2 3.1a1.27 1.27 0 0 0 .1.6 19.75 19.75 0 0 0 .8 2.6 5.7 5.7 0 0 1-.1 1.3 8.05 8.05 0 0 1-.4 3.5c-.4.7-.5 1.5-.9 2.1a12.48 12.48 0 0 1-5.2 3.1c-1.6.3-3 1.1-4.6 1.4v1.1a13.32 13.32 0 0 1 .6 2.3c.1.4.4.9.5 1.4a3.49 3.49 0 0 0 .7 2c.1 1.3.1 1.9-.9 2.1-.4.1-.7 0-1 .1-.6.1-1.1 1.1-1.7 1.1-1.2.2-1.8-.7-1.9-1.8a14.36 14.36 0 0 1-.1-4.1 2.85 2.85 0 0 1-.6-1.4c-.1-.7-.1-1.5-.2-2.3a1.85 1.85 0 0 0-.2-.7c-.3-.8-.4-1.8-.6-2.5-.1-.4-.1-.9-.2-1.2-.1-.9-.4-1.6-.5-2.4-.1-.4 0-.8-.1-1.1-.1-.9-.5-1.7-.6-2.6a17.74 17.74 0 0 1-.2-3.2c0-.5.2-1.1.2-1.6l-.6-.9c.1-.3.1-.5.2-.8a4.79 4.79 0 0 1 2-.7c1.1-.2 1.6 0 2.7-.2a25 25 0 0 0 3.4-.6 12.93 12.93 0 0 1 2.1-.7zm-7.5 5.2a3.19 3.19 0 0 0-.3 1.4 19.27 19.27 0 0 0 .1 2.4 4.25 4.25 0 0 1 .2 1.1 7.57 7.57 0 0 1 .1 1.5c.1.3.1.6.2.9a4.1 4.1 0 0 1 .1 1.1c.1.5.3 1 .4 1.6a2.49 2.49 0 0 0 .1.8c.1.5.2 1.1.3 1.7.1.9.6 1.6.7 2.5.1.4 0 .7.1 1 .1.7.5 1.3.6 2s-.1 1.1 0 1.7a1.85 1.85 0 0 0 .2.7 9.52 9.52 0 0 0-.1-4.1c-.2-1.6-.2-2.7-.4-3.7-.1-.7-.3-1.4-.4-2.1s-.1-1.6-.2-2.4c-.1-.5-.2-1.1-.3-1.6s0-1.2-.1-1.8c-.1-.3-.1-.6-.2-1-.1-.6 0-1.2-.1-1.7a3.21 3.21 0 0 0-1-2zm2.4-.5c.7-.3 1.3-1 2-1.3.3 0 .8.1 1 .1a1.69 1.69 0 0 0-.2-.5l-.7.2-.1-.2c-.8.2-1.5.6-2.4.8a3.55 3.55 0 0 1 .4.9zm3.6 1.1h-.9c-.4.1-1.1.5-2.3 1 .1.6.2 1.1.3 1.7s0 1.5.1 2.2c.1.3.1.6.2 1a2.44 2.44 0 0 1 0 1.2 3.58 3.58 0 0 1 .4 1.1 26.23 26.23 0 0 1 2.7-.1 7.61 7.61 0 0 0 3.7-2.7c.4-.5.3-1.3.7-1.9a1.72 1.72 0 0 0 .2-1.2c-.2-1-1.1-2.3-2.3-2.3a8.51 8.51 0 0 1-2.2-.4zm1.7-2.6a21.66 21.66 0 0 0 2.5.4c.7.3 1.4.9 2.1 1.2a3 3 0 0 0-1.2-1.7 11.63 11.63 0 0 0-1.8-.4 5.44 5.44 0 0 0-1.8 0 2.19 2.19 0 0 0-1.2.5 2.23 2.23 0 0 1 1.4 0zM184.9 128.99a12.86 12.86 0 0 0-1.9-.4 3.49 3.49 0 0 1-1.2 1.5 2.93 2.93 0 0 1-1-.3 8.8 8.8 0 0 1-.5-1.5c-.1-.4 0-.9-.1-1.3l-.3-1.2c-.1-.5-.1-2.1-.3-3.1-.1-.5-.3-1-.4-1.5a9.15 9.15 0 0 1-.1-1.7c-.3-2-.7-3.1-1-5a4 4 0 0 1 .3-1.5 8 8 0 0 0 .3-1.5 17.23 17.23 0 0 1 2.1-.7c.8-.1 1.2-.2 1.9-.3a3.72 3.72 0 0 1 1 2.2c.1.7.1 1.6.2 2.2a15.69 15.69 0 0 1 .3 1.6c.1.7.1 1.5.2 2.2.3 1.9.4 3.7.7 5.4.1 1.2.3 2.4.6 4.2zm-1 8.2a3.75 3.75 0 0 1-1.1.1 1.4 1.4 0 0 1-1.5-1 7 7 0 0 0-.3-1.4c-.1-.4-.1-.8-.2-1.2a9.85 9.85 0 0 1 .2-1.7 2.87 2.87 0 0 1 1.3-.8 12.21 12.21 0 0 0 2.6-.6c1.3.3 1.8 1.4 2 2.8.1.8.2 2.3-.5 2.7l-1 .6a8.8 8.8 0 0 1-1.5.5zm-1.4-12.3c-.2-1.6 0-2.6-.3-4.2a4.25 4.25 0 0 1-.2-1.1 7.43 7.43 0 0 1-.5-2.1 20 20 0 0 1-.3-2.3c0-.1-.2-.1-.2-.1a.39.39 0 0 0-.2.4c.1.8.1 1.2.2 1.9.2 1.1.8 5.5 1.1 7.7a.77.77 0 0 0 .2.3 1.06 1.06 0 0 0 .2-.5z" />
        </g>
    </symbol>
    <symbol id="dorbel-benefit-target" viewBox="0 0 188.9 201.8">
        <path fill="#BEA1D6" d="M130.3 53.4l-5.2-11.5-4.3 4.3-.7.7 1.6 3.6 5.4 11.7 4-4 1-1m5.4 3.4l-3.1-1.5-1.2 1.2-3.8 3.8 11.1 5.1 3.5 1.6.7-.7 4.3-4.3m-16.7-31.1l-4.9 5 7 15.3 4.9-5m-2.6 6.9l14.5 6.6 5-5-14.5-6.6m16.8 4.4l5-5-14.6-6.7-5 5m-9.3-17.2l7 15.3 5-5-7-15.3" />
        <path fill="#31124B" d="M151.2 42.4l.1-.1c1.4-1.4-.8-3.5-2.1-2.1l-.3.3-8.3-18.2-7.3 7.3-2.3 2.3-5 5-2.3 2.3-5.6 5.6c-16.5-9.6-36.3-12.9-55-9.2C48 38.4 33.8 46 22.9 57 11.9 68 4.3 82.3 1.4 97.6c-3.2 16.5-.9 33.9 6.4 49 7.2 14.9 19.1 27.3 33.7 35.1 1.8 1 3.6 1.9 5.5 2.7l-6.4 15.3c-.7 1.8 2 2.9 2.8 1.2l6.4-15.3c14.3 5.7 30.3 7 45.3 3.7 4.2-.9 8.3-2.2 12.3-3.7l6.4 15.3c.7 1.8 3.5.6 2.8-1.2l-6.4-15.3c14.8-6.5 27.4-17.6 35.7-31.5 8.9-14.7 12.7-32.2 10.7-49.3-1.2-10.9-4.8-21.5-10.3-30.9l5.6-5.6 2.3-2.3 5-5 2.3-2.3 7.3-7.3-17.6-7.8zm-11.6-15l7 15.3-5 5-7-15.3 5-5zm-7.3 7.3l7 15.3-5 5-7-15.3 5-5zm-11.5 11.5l4.3-4.3 5.2 11.4 1.8 3.9-1 1-4 4-5.4-11.7-1.6-3.6.7-.7zm33.3 66.2c0 12.7-3.2 25.3-9.4 36.4-6 10.8-14.6 20.1-24.9 26.8-12.4 8.1-27 12.4-41.8 12.3-14.7-.1-29.2-4.6-41.4-12.8-10.2-6.8-18.7-16.2-24.6-27-6-11.1-9.1-23.8-9-36.5.1-11.9 3.1-23.7 8.6-34.2 5.3-10.2 13-19.1 22.3-25.9 9.4-6.9 20.4-11.6 31.9-13.6 13.9-2.4 28.5-.8 41.6 4.7 3.3 1.4 6.6 3 9.7 4.8l7.8 17-10.3 10.3c-8.1-7.8-18.7-12.8-29.8-14.1-10-1.2-20.2.6-29.2 5-8.5 4.4-15.7 10.8-20.8 18.7-5.2 8.1-8.1 17.5-8.2 27.2-.2 10.3 2.7 20.6 8.3 29.2 5.5 8.4 13.3 15.2 22.5 19.3 11.8 5.3 25.3 5.9 37.5 1.9 10-3.3 18.8-9.6 25.1-18 6.2-8.1 9.9-18.1 10.5-28.3.7-11.4-2.4-22.8-8.8-32.3-1.5-2.2-3.2-4.4-5.1-6.4l10.6-10.6 16.3 7.5c6.7 11.4 10.6 24.6 10.6 38.6zm-78.8 3.9c3.9 3.3 9.9-1.1 7.8-5.9l12.6-12.6c6.3 7.3 7.2 18.1 2.2 26.4-5.2 8.5-15.7 12.8-25.4 10.1C63.7 131.8 57 124 56 114.9c-.9-8.3 3-16.5 9.8-21.2 8.5-5.8 20.2-5 27.8 1.9l-12.5 12.5c-2.2-1.4-5.2-.7-6.7 1.4-1.4 2.2-1 5.1.9 6.8.8.6-1-1 0 0zm3.3-29.5c-8.2 0-16.1 4.1-20.9 10.8-5 7-6.1 16.3-2.9 24.3 3.5 8.8 11.8 15.1 21.3 16 9.9 1 19.6-4 24.6-12.5 5.6-9.4 4.4-21.6-2.7-29.8L114.6 79c7.2 7.8 11.8 17.8 12.9 28.4 1 9.9-1 20-5.9 28.7-4.6 8.2-11.5 15.1-19.9 19.6-10.6 5.7-23.1 7.2-34.7 4.4-9.8-2.4-18.8-7.9-25.4-15.6-6.3-7.3-10.4-16.4-11.6-25.9-1.2-9.2.3-18.7 4.3-27.1 3.8-7.9 9.7-14.8 17-19.7 7.5-5 16.3-7.9 25.3-8.3 10.6-.5 21.2 2.6 30 8.7 2.1 1.5 4.1 3.1 5.9 4.8L95.8 93.5c-4.5-4.2-10.6-6.7-17.2-6.7zm70.4-21l-4.3 4.3-.7.7-3.5-1.6-11-5 3.8-3.8 1.2-1.2 3.1 1.4 11.4 5.2zm7.2-7.3l-5 5-14.5-6.7 5-5 14.5 6.7zm2.3-2.2L144 49.6l5-5 14.5 6.7-5 5zm29.2-46.8c-8.4 6.6-16.4 13.9-23.7 21.7-1.4 1.5 1 3.5 2.3 2 6.9-8.7 14.5-16.9 22.5-24.6.1 0-.4.4-1.1.9-.7.6.7-.5 0 0zm-20.1 9.3c5.8-6.7 12.2-13 18.8-18.8-7.3 5.1-14.4 10.7-21 16.8-1.4 1.4.9 3.6 2.2 2z" />
    </symbol>
    <symbol id="dorbel-benefit-wand-2" viewBox="0 0 255.9 183.9">
        <path fill="#BEA1D6" d="M247.5 165.1c0 7.1-5.8 12.9-12.9 12.9H102.3c-7.1 0-12.9-5.8-12.9-12.9V32.9c0-7.1 5.8-12.9 12.9-12.9h132.3c7.1 0 12.9 5.8 12.9 12.9v132.2z" opacity=".2" />
        <path fill="#BEA1D6" d="M38.5 6.5c.8 2.6 2.9 4.7 5.5 5.5-2.6.8-4.7 2.9-5.5 5.5-.8-2.6-2.9-4.7-5.5-5.5 2.6-.8 4.7-2.9 5.5-5.5zM57 71.8c1 3.2 3.5 5.7 6.7 6.7-3.2 1-5.7 3.5-6.7 6.7-1-3.2-3.5-5.7-6.7-6.7 3.2-1 5.7-3.5 6.7-6.7zM14.8 33c.4 1.4 1.6 2.6 3 3-1.4.4-2.6 1.6-3 3-.4-1.4-1.6-2.6-3-3 1.4-.4 2.5-1.6 3-3zM58 50c.4 1.4 1.6 2.6 3 3-1.4.4-2.6 1.6-3 3-.4-1.4-1.6-2.6-3-3 1.5-.4 2.6-1.5 3-3zM34.8 57.9c.6 2 2.2 3.6 4.2 4.2-2 .6-3.6 2.2-4.2 4.2-.6-2-2.2-3.6-4.2-4.2 2-.5 3.6-2.1 4.2-4.2zM59 17.8c.6 2 2.2 3.6 4.2 4.2-2 .6-3.6 2.2-4.2 4.2-.6-2-2.2-3.6-4.2-4.2 2-.6 3.6-2.2 4.2-4.2zM39.4 30.2c1.1 3.4 3.7 6 7.1 7.1-3.4 1.1-6 3.7-7.1 7.1-1.1-3.4-3.7-6-7.1-7.1 3.4-1.1 6-3.7 7.1-7.1zM8.6.9C9.8 5 13 8.2 17.1 9.5 13 10.8 9.8 14 8.6 18.1 7.3 14 4.1 10.8 0 9.5 4.1 8.2 7.3 5 8.6.9z" />
        <path fill="#FFF" d="M235.5 152.7c0 7.3-6 13.3-13.3 13.3H85.8c-7.3 0-13.3-6-13.3-13.3V16.3C72.5 9 78.4 3 85.8 3h136.4c7.3 0 13.3 6 13.3 13.3v136.4z" />
        <path fill="#31124B" d="M238.5 151.9c0 8.4-6.8 15.1-15.1 15.1H86.6c-8.4 0-15.1-6.8-15.1-15.1V15.1C71.5 6.8 78.3 0 86.6 0h136.7c8.4 0 15.1 6.8 15.1 15.1v136.8zm-4-136.4C234.5 9.1 229.4 4 223 4H86.9c-6.3 0-11.5 5.1-11.5 11.5v136.1c0 6.3 5.1 11.5 11.5 11.5H223c6.3 0 11.5-5.1 11.5-11.5V15.5z" />
        <circle fill="#5C1598" cx="88.5" cy="15.9" r="3.4" />
        <circle fill="#5C1598" cx="101" cy="15.9" r="3.4" />
        <circle fill="#5C1598" cx="113.5" cy="15.9" r="3.4" />
        <path fill="#BFA0D8" d="M211.5 36.7c0-2.5-2.3-4.7-4.8-4.7H103.1c-2.5 0-4.7 2.1-4.7 4.7V65h113V36.7zM98.5 76h113v8h-113zM98.5 95h113v7h-113zM98.5 113h113v7h-113zM98.5 131v4.3c0 2.5 2.1 4.7 4.7 4.7h103.5c2.5 0 4.8-2.2 4.8-4.7V131h-113z" />
        <g>
            <path fill="#31124B" d="M251 183.9c-1.3 0-2.5-.5-3.5-1.4l-79.3-79.3 6.9-6.9 79.3 79.3c1.9 1.9 1.9 5 0 6.9-.9.9-2.1 1.4-3.4 1.4z" />
        </g>
        <g>
            <path fill="#A773D8" d="M159.062 80.13l17.748 17.747-6.93 6.93-17.747-17.75z" />
        </g>
        <g>
            <path fill="#31124B" d="M159.086 80.225l12.87 12.87-6.93 6.928-12.87-12.87z" />
        </g>
    </symbol>
    <symbol id="dorbel-benefit-wand" viewBox="0 0 148.4 143.3">
        <path fill="#5C1598" d="M6.5 44.5c.6 2.1 2.3 3.8 4.5 4.5-2.1.6-3.8 2.3-4.5 4.5-.7-2.2-2.4-3.9-4.5-4.5 2.1-.7 3.8-2.4 4.5-4.5zM51.5 7c.8 2.6 2.9 4.7 5.5 5.5-2.6.8-4.7 2.9-5.5 5.5-.8-2.6-2.9-4.7-5.5-5.5 2.6-.8 4.7-2.9 5.5-5.5zM34.5 0c.3 1.2 1.3 2.1 2.5 2.5-1.2.3-2.1 1.3-2.5 2.5-.3-1.2-1.3-2.1-2.5-2.5 1.2-.4 2.1-1.3 2.5-2.5zM2.5 18c.3 1.2 1.3 2.1 2.5 2.5-1.2.3-2.1 1.3-2.5 2.5-.3-1.2-1.3-2.1-2.5-2.5 1.2-.4 2.1-1.3 2.5-2.5zM78.5 17c.5 1.6 1.8 3 3.5 3.5-1.6.5-3 1.8-3.5 3.5-.5-1.6-1.8-3-3.5-3.5 1.7-.6 3.1-1.9 3.5-3.5zM26.5 39c.5 1.6 1.8 3 3.5 3.5-1.6.5-3 1.8-3.5 3.5-.5-1.6-1.8-3-3.5-3.5 1.6-.6 3-1.9 3.5-3.5zM20.2 58.9c.9 2.7 3 4.9 5.8 5.8-2.7.9-4.9 3-5.8 5.8-.9-2.7-3-4.9-5.8-5.8 2.8-.9 5-3.1 5.8-5.8zM23 13.9c1.1 3.3 3.7 5.9 7 7-3.3 1.1-5.9 3.7-7 7-1.1-3.3-3.7-5.9-7-7 3.3-1.1 5.9-3.7 7-7z" />
        <path fill="#BEA1D6" d="M65.1 34.2c5.3 5.3 6.8 13.5 3.6 20.3-3.2 6.9-10.6 11.1-18.1 10.3-7.5-.7-13.9-6.3-15.7-13.6-1.8-7.2 1.2-15 7.4-19.2 7.1-4.7 16.8-3.8 22.8 2.2z" />
        <path fill="#DDC0FF" d="M58 35.6c-.7.7-2.3-.2-3.1-.4-1.2-.2-2.4-.3-3.5-.2-1.2.1-2.3.5-3.4.8-.9.2-1.8-.7-1.2-1.5.6-.7 2.3-1 3.2-1.1 1.1-.2 2.3-.3 3.4-.2.7.1 6.4.8 4.6 2.6z" />
        <path fill="#BEA1D6" d="M89.8 14.3c4.2-2.4 8.6-4.8 13.3-6.2 4.1-1.2 10-2.2 12.6 2.1 1.5 2.5 1.1 5.8.4 8.5-.8 3.1-2.1 6.1-3.6 8.9-3 5.9-6.8 11.4-10.7 16.7-8 10.7-17.2 20.6-26.9 29.8-9.6 9.2-19.8 17.8-30.9 25-5.2 3.4-10.7 6.6-16.6 8.6-2.8 1-6.3 1.9-9.2.9-2.9-1.1-3.5-4.1-3.2-6.9.1-.9.3-1.9.6-2.8-.9 3.6-1.1 8.8 3.5 9.7 2.4.5 5-.2 7.3-.9 2.4-.8 4.8-1.9 7-3.1 9-4.7 17.1-10.9 24.8-17.4 8-6.8 15.6-14.1 22.8-21.8 7.3-7.8 14.1-16 20.2-24.7 3.3-4.8 6.5-9.8 9-15.1 1.2-2.6 2.3-5.3 2.9-8.1.4-1.9.7-4.4-.8-5.9.2.2-.3-.2-.2-.2-.5-.3-1.1-.5-1.7-.6-1.4-.2-2.9.1-4.3.4-2.8.7-5.5 1.9-8.1 3.2-2.1 1.1-4 2.4-6.1 3.4-2.4 1.2-4.4-2.1-2.1-3.5z" opacity=".8" />
        <path fill="#BEA1D6" d="M101.3 52.8c2.5-1.4 5.1-2.8 7.9-3.7 2.7-.8 6.5-1.5 8.5 1.1 2.2 3 .4 7.4-1 10.3-1.7 3.6-4 7-6.4 10.3-4.7 6.4-10.2 12.3-15.9 17.8-5.4 5.2-11.1 10-17.2 14.3-3.2 2.3-6.6 4.4-10.2 6-2.5 1.1-7.4 3.4-9.8 1 1.7 1.6 4.5.7 6.4 0 2.7-1 5.2-2.4 7.5-3.9 4.6-2.9 8.8-6.3 12.9-9.9 9.3-8.2 17.9-17.5 24.8-27.8 1.9-2.9 3.7-5.8 5.1-9 .7-1.5 1.3-3.2 1.5-4.8.1-.8.2-1.9-.4-2.4l.1.1c-1-1.1-4.1.2-5.2.6-1.7.7-3.4 1.6-5 2.5-1 .6-2.1 1.6-3.3 1-1.6-.6-1.7-2.7-.3-3.5z" opacity=".25" />
        <path fill="#BEA1D6" d="M110.5 78.7c2.5-1.3 5.8-3.2 8.7-2.5 3.7.9 2.6 5.3 1.4 7.8-1.8 3.6-4.3 6.8-7 9.7-2.5 2.8-5.2 5.4-8 7.9-2.1 1.8-4.2 3.6-6.4 5.2 3.7-3.2 7.2-6.9 10.3-10.7 2.2-2.7 4.3-5.5 6.1-8.4.9-1.4 1.7-2.9 2.3-4.5.3-.6 1.4-3.1.7-3.8l-.1-.1c.1.1.3 0 .4.1-2.4.2-4.3 1.4-6.3 2.6-.9.6-2.1.6-2.8-.4-.7-.9-.4-2.3.7-2.9z" opacity=".15" />
        <path fill="#31124B" d="M147.5 140.4c-4.8-5-9.6-9.9-14.4-14.9-.7-.7-1.4-1.5-2.2-2.2-.4-2-.3-4.3-.2-6 .1-1 .3-2-.5-2.8-1.1-1-3.1-.4-3.3 1.1-.1.9.1 1.9.2 2.8 0 .3 0 .6.1.9-4.2-4.3-8.3-8.6-12.5-13-.4-1.6-.3-3.4-.3-4.9 0-.8.3-1.7.1-2.4-.3-1.1-1.7-1.5-2.6-.8-.5.4-.7 1.2-.9 1.8-.2.7-.3 1.4-.4 2.2-.8-.8-1.5-1.6-2.3-2.4-7.3-7.6-14.6-15.1-21.9-22.7-1.9-2-3.9-4-5.8-6-3.5-3.7-6.5-7.6-8.2-12.5-.9-2.4-1.5-4.9-1.9-7.5-.3-2.5-.2-5.1-.7-7.6-.3-1.4-.7-2.7-1.2-4-.2-.4-.5-1.4-.9-1.6-.4-.1-1 .2-1.3.4-1.1.7-1.3 2.6-1.7 3.7-.5 1.6-1.2 3-2.6 3.9-1.5 1-3.5 1.3-5.2.7-1-.3-1.7-1.1-2.7-1.4-.8-.2-1.7 0-2.3.5-.7.5-1.2 1.4-1.2 2.3 0 1 .6 1.7 1 2.5 1.9 3.4-.2 7.5-3.8 8.6-1.1.3-2.5.5-3.5 1.1-.5.3-.9.8-1.1 1.4-.2.6 0 .8.6 1.1 1.1.6 2.3 1.1 3.6 1.4 2.6.7 5.3.6 8 .8 2.4.3 4.9.8 7.2 1.6 4.7 1.5 9 4.1 12.5 7.5 3.8 3.7 7.6 7.4 11.3 11 8.2 8 16.4 15.9 24.6 23.9 1.7 1.6 3.4 3.3 5.1 4.9h-.5c-.8-.1-1.7-.3-2.5-.2-1.4.2-1.8 1.9-1 2.9.7.8 1.6.6 2.5.5 1.4-.1 3.2-.2 4.9.1 5.3 5.1 10.5 10.3 15.8 15.4 2.6 2.5 5.2 5.1 7.8 7.6.9.9 3.2 3.9 4.6 2.5 1.1-.6.4-1.5-.3-2.2z" />
    </symbol>
    <symbol id="dorbel-icon-social-fbmsg" viewBox="0 0 18.88 19">
        <title>dorbel-icon-social-fbmsg</title>
        <path class="cls-1" d="M9.44 0C4.23 0 0 3.94 0 8.8a8.57 8.57 0 0 0 3.52 6.85V19l3.21-1.78a10.09 10.09 0 0 0 2.71.37c5.21 0 9.44-3.94 9.44-8.8S14.65 0 9.44 0zm.94 11.85L7.94 9.27l-4.66 2.58 5.16-5.52 2.5 2.58 4.6-2.58z" id="Facebook_Messenger" data-name="Facebook Messenger" />
    </symbol>
    <symbol id="dorbel-verified-stamp-white" viewBox="16 -16 160 160">
        <style>
        .st0 {
            fill: #FFFFFF;
        }
        </style>
        <path class="st0" d="M96-13c42.5 0 77 34.5 77 77s-34.5 77-77 77-77-34.5-77-77 34.5-77 77-77m0-3c-44.2 0-80 35.8-80 80s35.8 80 80 80 80-35.8 80-80-35.8-80-80-80z" />
        <path class="st0" d="M96 130.3c-.2.1-.1.3.5.2l.4-.3-.9.1zm4.1.5c.7-.2 1.5-.6 1-.8-.7.4-.9.3-1.6.7-.6.1-1.1-.1-1-.2-.2.1-.9 0-1.3.2.8.2 1.8.3 2.8-.1.4 0 .1.1.1.2zm50.8-27.7l-.3.3c.2-.1.2-.2.3-.3zm0 0l.7-.8c-.1-.1-.4.4-.7.8zM108.1 129c-.2.1-.4.1-.5.2.2 0 .3-.1.5-.2 0 .1 0 0 0 0zm32-13.6l-.2.2c0 .1-.1.2-.1.3l.3-.5zm-10.3 7.3c.3-.1.2-.4.2-.6-.1.2-.2.3-.4.5 0 .1.1.1.2.1zm-18.7 6.9l-.3.1s.2-.1.3-.1zm35.5-20.5h.2c-.1-.1-.2 0-.2 0zm-64.7 19c0 .1 0 .1 0 0 .1.1.1.1 0 0zm14.1 3h-.2v.2l.2-.2zm67-80.7c.1.3.1.2 0 0zm-81.4-53c1.2 0-1.9.8 0 .6-.2-.1 1.5-.8 0-.6zM108.4 129c.2 0 .3-.1.5-.1-.2 0-.4.1-.5.1zM81.6-2h.2-.2zm70.7 27.6c0 .1 0 .2.1.3 0 0 0-.1-.1-.3zm8.4 18.3l-.1-.5c.1.2.1.3.1.5zm-15.2-26.2c-.2-.2-.2-.3-.5-.5 0 0 0 .1.1.1l.4.4zm-8-7.3c0 .1.1.1.1.2.1.1.2.1.3.2l-.4-.4zm-84 103.8c.1.2.2.4.2.5 0-.3 1.2.7-.2-.5zm54.6 15c0-.1.1-.1.3-.2-.1 0-.2 0-.3.2 0-.1 0 0 0 0zm35.5-110.3l-1.1-1.2c.3.4.7.8 1.1 1.2zM32.7 45.8l-.1.4c.1-.2.1-.3.1-.4zm106.1-31.4c-.2-.3-.4-.5-.6-.8-.1 0-.1-.1-.2-.1l.8.9z" />
        <path class="st0" d="M63.1 120.5c-1.4-.8-.8-.1-1.2 0-1.7-.9-.6-.7-1-1.2-1.1-.5-2-.8-2.7-1.3 0-.1-.1-.2.1-.2-1.2-.5-3-2.2-4.4-2.9-.1-.1-.1-.2-.1-.2.1.3 0 .5-.2.5-.5-.5-1.2-.7-1.2-1.1.3.3.4.2.6.3l-.6-.4c-.3-.7.9.6 1 .4-.6-.4-1.3-.9-1.9-1.3-.6-.5-1.1-.9-1.5-1.3.1-.4 2 1.7 1.1.5l.6.6.6.6c-.6-1.3.8.7.2-.5-.8-.8-1.3-1.2-1.8-1.6s-1-.8-1.7-1.7c-.5-.2-.1.3-.6.1-1.3-1.1-1.5-1.7-1.7-2.2s-.3-1-1.3-1.7c-.6-.3-1-.3-1.9-1.7l.7.2c-1.3-1.8-1.2-.7-2.4-2.7.4.2 1.1 1.3 1 1-.6-1.4-.8-.7-1.5-1.7l.1-.4c-1.3-1.9-2.9-4-4.2-6.3.2.1.5.4.3-.2-.9-1.4-1.6-3-2.2-4.6s-1.1-3.3-1.5-4.8l-.7-1.1c-.1-.3 0-.5.1-.3-.2-1.2-.2 0-.5-.5-.2-.7-.1-.9.1-.5-.9-2-2-5.9-2.1-8.2l.2.4c-.2-1.8-.9-1.9-.8-3.6l.1.3c-.3-3.9-.6-8.2 0-11.1-.4-.6.5-3.8 0-4.1.6-2.2.6-1.5 1.3-4.6.2-.8-.1-1.3.1-2.3h.3v-1.4s.1-.2.3-.3c.1-.2.3-.3.3-.3l.2-.9c-.1.4-.4.7-.4.7.1-.7.4-1.6.7-2.3.3-.7.6-1.2.7-1.1 0 0 .2-.9.4-1.7.2-.9.5-1.7.5-1.7.1.1-.1.7-.2 1.2.4-1.9.4-.2.8-1.9-.2.2-.1-.2-.2-.2.5-.7 1.3-2.5 1.9-3.9l.1.3c1.2-2.3 2.5-5 4.1-7.4-.7.8-.8.4-.4-.3l.5-.1c.1-.6-.6.7-.2-.4.7-.9.7-.4.5.2l.7-1.2c.1 0 0 .3 0 .4.2-.6 1.6-1.7 1.8-2.5h.1c.9-1.2 1.6-2 2.2-2.8s1.2-1.5 2.1-2.4c-.2-.2.5-.9.9-1.6.7-.6 1.4-1.2 2.2-1.8.8-.6 1.6-1.2 2.4-2 1.1-1.1.2-.5.6-1 .2.1 1.9-1.2 1.2-.4 1-.8 1.7-1.3 2.4-1.9.4-.3.7-.6 1.2-.9s1-.7 1.6-1.2c-.4.1-.7.3-.6.1.5-.4 1.2-.6 1.2-.5l-.1.1c1.5-1.1 3.4-2 5.3-2.8.9-.4 1.9-.7 2.7-1.1.8-.4 1.6-.7 2.2-1.1h-.3s.7-.3 1.4-.7c.7-.4 1.4-.6 1.4-.6 1.3-.4-.7.4.3.3.7-.4 1.4-.6 2-.9.6-.2 1.2-.4 1.8-.5 1.2-.3 2.3-.5 3.6-1 .5.1 1.3 0 2.1-.1s1.7-.3 2.7-.5c1-.1 1.9-.3 2.8-.4.9-.1 1.8-.1 2.5 0l-.2-.2c.7-.2.9 0 1.4.1-.1-.1-.8-.1-.3-.2 3.1-.2 6.2-.1 9.4.3 3.1.4 6.3 1.1 9.3 1.9 2.2.6 1.5-.6 4.2.6l-.9.1c4.6.9 8.9 3.2 13 5.1-.3-.1-.3 0-.7-.2.7.7 3.1 1.8 3.2 1.6.6.4 0 .2.4.6.7.6 2.2 1 2.5 1.5 0 .1-.3-.1-.4-.2.6.3 2.4 1.7 2 1.1.7.5 1.3 1 1.9 1.5.6.5 1.2.9 1.7 1.4.9.4 2.1 2 2.6 1.9-.4.3 1.9 2.3 2.8 3-.3-.2.5.8.1.6.9.9 1.6 1.7 1.7 1.4 1.1 2 3.2 3.2 3.5 4.7 2.4 2.8 4.3 5.6 5.9 8.5-.2.1-.6-.8-1.1-1.5-.4-.8-.9-1.5-1.1-1.3l1.2 1.8c.4.6.7 1.1 1 1.6.7 1 1.2 2.1 1.8 3.6.3.8-.4-.3-.5-.6.8 1.4 1.2 2.8 1.8 4.1.5 1.4 1 2.7 1.4 4 0 0-.2-.3-.3-.5.2.5.3 1.2.5 1.1l-.2-.5c0-.9 1.2 1.9 1.4 2-.8-.8.5 2.7-.6 1.5.1.3.3.8.4.6.1.5 0 .7-.2.2.6 1.9.6 1.2.9 2.9-.1 0-.2-.3-.3-.5.3.8.7 1.7.8 3.2-.1-.1-.1.1-.2-.3.2 1.3.5 2.4.6 3.5.2 1.1.4 2.3.3 3.7-.5-.8-.1 1-.5 1.1 0 0 0 .4.1.8v.8l.2-.6c-.1 1.3.2 2.5 0 3.7v-.5c0-.2-.1-.5-.1-.5v1.3c0 .6-.1 1.3-.1 1.3l.2-1.4c.1 1.4.5-.1.2 1.7 0-.4-.1 1.3-.4 2 0 .7.1 1.4-.1 2.3-.2.2-.4-.3-.5-.1.2.7-.4 3.1-.3 4 0-.3-.2-.3-.3-.3l.1.6c-.2.6-.3.7-.4.5-.5 1.8.6-.5-.1 1.6v-.5c-.6 2.1-1 4.2-1.8 6.1-.5.4.5-1.7 0-1.2-.8 2.8-1.7 5.9-3.1 8.4l.3-.5c.3.6-1.2 1.8-1.7 3.2.1-.3 0-.5 0-.4-.5.8-1 1.7-1.5 2.7s-1.1 2.1-1.9 3.4l.1-.4c-.8.9-1.8 2.5-2.6 3.4-.1.4-.6.9-.2.7-3 2.5-4.5 5.8-7.5 7.7.3-.3.6-.8.4-.5l-1 1c-.5.5-1.1 1-1.1 1 .3 0 .4-.1 1-.4-.2.3-.7 1-1.3 1.4.9-1-.2-.3-.8 0 .1 0 0 .2.1.2-1.5.6.1.5-1.7 1.6v-.2c-.6.5-1.1 1.1-1.8 1.5-.4 0 .6-.6.5-.8-.9.7-1.6 1.8-2.7 2.1.4-.3 1-.7 1.3-1.1-1.1.4-1.2.5-1.9 1h.1s-.4.2-.9.5c-.4.2-.9.5-.9.5l.5-.2c-.4.7-1.1 1.1-1.8 1.5-.7.4-1.5.8-2.3 1.5 1.5-1.3.2-.4.2-.7-.5.2-1.2.4-1.1.2-.7.7-1.5.5-2.5 1.4-.1-.1-.9.4-.8.1-1.1.6.3 0 .3.2-1.6 1.1-4.2 1.3-6.6 2.6-1.1.4-1.7.7-2.3 1-.6.3-1.2.6-2.2.9-.7 0 .5-.5.5-.5-1.2.1-2 .4-3.1.7.2-.1 0-.2-.4-.2-.9.2-.5.5-1.7.5.2-.1.4-.4.8-.5-.5.1-1 .3-1.5.5-.5.1-1 .3-1.6.4-.3-.1.6-.3 1-.5-1.2.2-3.1.6-3.5.8h.8c-.4 0-.2-.2.1-.3 1-.3 1.5-.1 1.6 0l-.8.2c.4.2 1.2.1 2.1-.1.9-.2 1.8-.6 2.5-.7l-.6.5 1.5-.6c.4 0 .6.2-.1.4 1.1 0 .9-.4 1.9-.3.1 0 .1 0 0 .1l1-.4c-.2.1.2.2-.4.3 2-.2 3-1.1 3.8-1l-.2.1c2.6-.9.2-.4 2-1.3l1.6.3.2-.4c.3-.1.8-.3.7-.1.9-.6-.2-.1.3-.5.7-.1 1.5-.5 2.3-.8.7-.3 1.4-.6 1.6-.4.3-.4-1.3.4 0-.4.3.2.7 0 1.1-.3s1-.7 1.6-.8c-.2.4-1.3.8-.1.5.2-.4.8-.6 1.4-.9.6-.2 1.2-.5 1.7-.8-.1-.2.4-.5 1.1-.9s1.5-.9 2.2-1.5c0 .2 2.9-1.7 4.2-2.6v.1c0-.5 1.4-1.4 2.3-2.3.1.2 0 .4-.5.9l.4-.4.4-.4c.1-.3.4-.6.9-1.1v.4c.6-.5 1.1-1.1 1.7-1.7l1.9-1.9c-.1-.3-1.6.6-.3-1 .2 0 .4.1 0 .6.1-.1.4-.5.6-.8l-.4.8c.7-.6.2-.5.7-1 .1.1.5-.3.5-.1-.1.1-.5.4-.6.7.6-.6 1.4-1.2 1.7-1.4-.1 0-.2-.2.2-.6 1-1.2.5-.2 1.2-.9.2-.4.9-1.1.7-1.3.3-.4.4-.3.6-.4.2-.4.8-1.1 1.2-1.7s.6-1.1.3-.8l-.1.2s0-.1.1-.1c.3-.6.7-1.1 1.1-1.7.4-.6.8-1.1 1.2-1.7.8-1.1 1.5-2.2 2.1-3.4l.1.1c.4-.7.7-1.5 1.1-2.2.3-.7.7-1.4.8-2 .2-.4.6-.9.6-.7.4-1.1.4-1.3 1.2-2.8-.3 1.2.3-.3-.3 1.2.6-1.4.9-1.7 1.3-3.3.1.6.7-1 .8-1.7l-.5 1c.2-.8.5-1.5.7-2.2l.2.5c1.3-2.9.9-5.7 2-7.9-.1-.9-.5 1.7-.6.9.3-1.4 1-2.8 1.1-3.3.4-2-.2-1.9.1-4-.1.3-.5.5-.5-1.1.2-1.4.6-1.7.7-.8 0 .3-.1.5-.1.5 0 .5 0 1.1.2.5l-.1-.2c.1-.4.2-1 .2-1.6.1-.5.1-.9.2-.7-.1-1.1-.2-.5-.3.3.2-1.9.1-2.9.2-4.8-.1.3-.2.6-.2.3.1-2.8-.2-1.2-.4-3.1.1-1.1.5.4.2-1.5 0-1.2.3-.3.4.2-.2-.9-.2-1.7-.3-2.4v-1.9l.2.9c-.1-.5-.2-1-.2-1.5l-.2.6c0-.5-.1-1 0-1-.3-.5-.3.5-.7-.6 0-.7-.5-2.1-.3-2.4.3 2.3.3-.3.7 1.6-.1-.4-.2-.8-.2-1.4 0-.1.1.1.1.2-.2-2.2-.6-.9-1.1-3.1.2.2.2-.6.1-.9.2.9-.2.5-.5-.3-.3-1.4-.5-1.5-.7-2.2l.2.8c-.2-.2-.4-.9-.8-1.9.1-.1.4.8.3.5-.7-1-.5-2.5-1.3-3.9-.2-.7.3-.2.1-.8-.8-1.6-.5-1.8-1.4-3.5 0 .6.1.6-.7-.4l1.4 2.7-1.1-1.6c.4.8.9 1.7 1.1 2.2-.5-.8-.5-.7-.5-.2-.2-1.3-1.2-2.2-1.6-3.5l.5-.2c-.7-2.1-2-3.3-3.4-5.8l.2.4.2.4c-.4-.2-1-1.4-1.5-2.2.2 0 0-.6-.1-1-.1.1-1.2-1.7-1.7-1.7 0 0-.1-.3-.3-.6-.1-.3-.3-.6-.3-.6-1.3-1.9-2-1.7-3.4-3.4.6.4 0-.5 1.1.5-.5-.6-.9-1.1-1-1-.1-.2-.5-.5-.9-.9-.4-.3-.8-.7-1-1-.3-.2-.5-.1-1-.7 0-.1.1-.1.1-.1-.1.1-1-.8-.6-.2-1.2-2-4.6-4.2-5.8-5.8-1.3-1-2.9-2-4.1-2.8.1 0 .1-.1.3.1-1.6-1.2-1.3-.2-3.1-1.6-.8-.9 1.1.5.6 0 .1-.7-2.4-1.3-3.6-2.4l.3.1c-.9-.7-2.6-1.1-4.4-1.9 0 0 .1 0 .1-.1-1.3-.3-3.6-1.1-5.4-1.6.6-.1.8.1.6-.2-.8-.2.1.5-1.5 0-.5-.3-1.5-.8-1.6-1.1 0 0 .4.1.7.2.4.1.7.2.7.2-.6-.6-1.9-.6-2.7-.9l.1-.1c-2.3-.6-2.4-.2-4.9-.8l.2.2c-1.4.1-1.1-.4-2.5-.4l-.3-.5c-.5 0-1.3-.1-2.2-.1-.9 0-1.9-.1-2.7-.1 1-.2 2.9-.1 4.1-.1-.9-.1-3.1-.4-3.6-.2.4 0 .8 0 1.2.1-1.1.1-2.6.2-4.4.1.4-.8-4.7-.3-6-.8-3.2.4-6.4.3-10.1 1 1.4.4-1.1.2-.7.8-.8.1-1.1.2-1.2.2 0 0-.7.1-1.3.1-.7.1-1.3.1-1.3.1-.7 0 .8-.3.7-.4-1.9.4-.8 0-2.1.1.3.1-.6.5-1.6.7l1.6-.2c-2.5 1-2.4.2-4.8 1.4l.7-.5c-1.3.5-4.8 1.9-5.8 2.9-.3 0-.6 0-.1-.3-3.1 1.3-6.3 3.8-8.6 5l.1-.3c-.5.4-.8.8-1.5 1.1 0-.1.1-.3-.1-.1-.2.2-1.2 1.2-1.9 1.6l.5-.5c-1.4.9-2.3 1.8-3.1 2.6-.8.9-1.5 1.7-2.5 2.7-.3-.3-2.3 1.3-3.2 2.2v-.1c-2.7 2.7-4 5-6 7.9-1.7 1.4-4.3 6-6 9 .3-.4.3.2 0 .8-.5.7-.7 2.2-1 1.9l.1-.3c-.6.4-1.2 2-1.7 3.2l.4.4c-1 1.4-1.7 3.6-2.2 5.6-.2 1-.5 1.9-.7 2.7s-.4 1.5-.7 1.9c-.1.8-.3 1.8-.3 2.7l-.3-.1c-.2 1.1-.4 2-.5 2.9-.2.9-.4 1.9-.4 3.3l-.2-.6c-.1 1.6.6 2.1.6 3.5l-.4.5c0 1.4-.2 2.8-.2 4.2v2.1l.3 2.1c-.1 0-.2-.1-.2-.6 0 1.3.3 5.1.8 4.5-.4.1.4 2.8.9 4.3l-.3-.2c.6 1.2.7 1.2 1.2 2.9.1.4-.1.4-.2-.1.2 1.4.5 1 .9 2.6l-.3-.6c.4 1.4.4 1.3.9 1.9.4.8.8 2.6.6 2.9.2.1.7.8.9 1.6 0 .1-.2-.1-.3-.3.3 1.2.8 1.9 1.2 2.6.4.7.7 1.3 1 2.1-.1.1-.1.2 0 .3-.8-1.7-1.4-3.1-1.3-3-.2.1.4 1.5-.5.6.3.5.8 1.2 1.3 2 .5.7 1 1.5 1.3 2.2v.2l-.1-.1c.1.3.3.6.5.8.2.4.3.7.6 1.1-.1.3.8 1.6 1.2 2.3.2-.2.7.7.4-.2.1.1-.1-.1-.4-.5-.1-.1-.1-.2-.2-.3-.3-.4-.6-1-1-1.6.4.5.8.9 1.1 1.8.4.2.8.5 1 .7.2 1.1 1.2 2.9 1.1 3.3.7.9 1.6 2 2.4 3 .4.5.8.9 1.2 1.3.4.4.8.7 1.1.9.5.5.4.7.5.9-.3-.3-.6-.6-.8-.7.9.9 2.7 2.9 3.2 2.9 1 1.3-.9-.4.8 1.2l-.3-.1c.7.9 1.5 1.6 2.2 2.3.8.6 1.6 1.1 2.3 1.7 1.6 1 3.3 2.1 5.1 3.8-.3-.2-.4-.4-.4-.4 1.1.9 2.3 1.7 3.6 2.5 1.3.7 2.5 1.5 3.9 2.1 2.6 1.3 5.3 2.4 7.9 3.7 1.5.6 1.7.5 2.7.6l.2.4s.4 0 .9.1c.4 0 .9.1.9.1 1.2.2 2.1.7 3.2 1 .5.2 1.1.4 1.7.6.6.1 1.3.2 2 .2l-.3-.3c.5.1 1.4.2 2.1.3s1.2.2 1.1.3c.1 0 .4-.2.8 0v.2h2.6c2 .3-.4.6 2.6.8 1.1 0 3.2-.4 2.8-.5-.4 0-1.1-.1-1.2-.3l1-.1c.2-.5.9-.9-1.5-1.3l-1.7.2-.5-.3h1.4c-.8-.2-1.3-.1-1.9 0-.1-.1-.4-.2-.7-.3l-1.7.3c-.2-.2.8-.3-.3-.5-.8.1.7.5-.6.5-.8-.3-.5-.5-1.5-.4-.1-.1.1-.2.5-.2-.9.1-2.2-.3-2.7-.1-.4-.2-1.1-.3-1.7-.4-.6-.1-1.1-.3-1-.5-.3 0-1.5 0-2.3-.2 1.5-.1-2.8-.8-2.3-1.3-.6.1-1.5-.2-2.5-.5-.5-.2-1-.3-1.5-.5s-1-.3-1.5-.5c.1 0 .3 0 .5.1-1-.4-1.2-.7-1.8-1-.3.3-1.8-.3-2.7-.4-1-.9.9-.1.7-.6 0 .2-.6 0-1.1-.2s-.9-.3-.8-.1c-.8-.7-.7-.5-1-1-.4.4-.9-.3-1.7-.5-1.1-.9-.1-.6-1.5-1.2-.8-.7.5-.1.5-.1zM37.2 94.4c.2.3.3.5.4.7-.1-.2-.2-.4-.4-.7zm-1.4-2.8c.2.4.3.8.6 1.2 0 .1-.2.1-.3-.2.1.1-.2-.6-.3-1zm1.4 6.9c-.3-.4-.3-.6-.3-.7.1.2.3.4.5.8h.1c-.2 0-.2-.1-.3-.1z" />
        <path class="st0" d="M38 99.1c0 .1.1.1.1.2 0-.1-.1-.2-.1-.3-.1 0-.1-.1-.2-.1.1 0 .1.1.2.2zm112.6 4.3s0 .1 0 0zM32 49.2h-.1v.3m106.1 66s-.1 0-.2.1c-.1 0 0-.1.2-.1zm-6.2 4.3l-.9.5c.4-.2.7-.3.9-.5zm-5 2.8v.2-.2zm32.3-77.8c0-.1 0-.1-.1-.2-.2-.5-.1-.2.1.2zm3 26.9v-.9c-.1.5-.1.9 0 .9zm-18.4-52.6l-.1-.1.1.1zm18.5 50.4c-.1.5-.1.9-.1 1.3 0-.4.1-.9.1-1.3zM103 129.7h-.3.3zm-.3.1l-.3.1c.2 0 .3 0 .3-.1zm-.9.2l.6-.1c-.2 0-.5 0-.6.1zm8.8-1.4l.1-.1c-.1 0-.1.1-.1.1zm2.2-.5c-.5.1-1.4.1-2.1.4l-.1.1c.3-.3 1.8-.2 2.2-.5zm9.6-2s-.5.2-.9.3c-.5.2-.9.3-.9.3.4 0 .8-.1 0 .3 2.4-.6-.6 0 1.8-.9zm5.6-2.5c-.9.5.1.1.1.2.6-.4.7-.5-.1-.2zm29.7-32l.2.2c.3-.8-.1-.1-.2-.2zm1.8-8.4l-.2.4c-.1.2-.2.3-.2.3l.1.4s.1-.3.1-.6c.1-.2.2-.5.2-.5zm3-4.3l-.1.3.3-1.3m-23.5-66.5v.4c.4.4.7.2 0-.4zm-29-13.6c-.3-.2-1.2-.5-1.8-.5.7.2 1.4.4 1.8.5zM32 40.4l.1-.6c0-.1-.1.2-.1.6-.1.2-.2.5-.2.5l.2-.5zM105 35.8c-.9 0-2.2.4-2.2.4v-9.5h-5.2v3.1h1.5v21.4s1.4 1 5.2 1c8.3 0 8.8-6.9 8.8-8.4 0-7.9-6.8-8-8.1-8zm-.5 13.1c-.9 0-1.7-.3-1.7-.3v-9.4s1.2-.2 2-.2 4.5.2 4.5 4.7c0 5.1-4 5.2-4.8 5.2zM66.3 26.7h-5.2v3.1h1.5v6.3s-1.3-.4-2.2-.4c-1.3 0-8.1.2-8.1 8.1 0 1.5.6 8.4 8.8 8.4 3.8 0 5.2-1 5.2-1V26.7zm-3.7 21.9s-.8.3-1.7.3-4.8-.1-4.8-5.3c0-4.5 3.8-4.7 4.5-4.7s2 .2 2 .2v9.5zM90 39c-.2.1-.2 0-.2 0v-2.6h-3.5s0 3.1-2.6 4.5c-.2.1-.5.2-.7.3-.8-3-2.9-5.5-7.3-5.5-5.5 0-7.6 4.5-7.6 8.3 0 4.1 2.1 8.3 7.6 8.3 5.4 0 7.5-4.3 7.6-8 1.1-.3 2.1-.8 2.8-1.4l.1-.1v8.9H90V46c0-.7.1-2.9 1.2-4.5.6-.9 1.6-1.7 2.9-1.7v2.4h3.1V36c-.2-.1-.9-.2-1.2-.2-4 .1-5.9 3.1-6 3.2zM75.7 49.1c-2.9 0-3.7-2.9-3.7-5.1 0-2.2.8-5.1 3.7-5.1 1.9 0 2.9 1.3 3.4 2.9h-1.9v3c.5 0 1 .1 1.5.1h.6c-.1 1.9-1.1 4.2-3.6 4.2zm65-1.2l-1.4-2c-.6 2-1.8 2.4-2.7 2.4-1.4 0-1.7-1.3-1.7-2.1V26.7h-5.2v3.1h1.5v15.7c-1.5 2.6-4.3 3.7-7 3.7-4.7 0-5.1-2.9-5.1-3.1 0 0 0-.1.1-.1.2.1 1.5.2 1.6.2 7.2 0 7.3-5.1 7.3-5.6 0-4.9-4.8-4.9-5.3-4.9-6.9 0-7.9 6.1-7.9 8.2 0 2.2.2 8.4 9.1 8.4 3.8 0 6.3-1.4 7.6-2.7.6 1.4 2.1 2.4 4 2.4 3.7 0 5.3-3 5.3-3.9l-.2-.2zm-22-4.8c0-2 1.3-4.2 3.6-4.2.4 0 2 .1 2 1.7 0 .3-.1 2.7-3.9 2.7-1.3 0-1.7-.2-1.7-.2zM96.1 89.5l4.2 7.5 8.4 1.7-5.9 6.2 1.1 8.5-7.8-3.6-7.8 3.6 1-8.5-5.8-6.2 8.4-1.7m32.8-7.5l2.8 5 5.6 1.1-3.9 4.2.7 5.7-5.2-2.4-5.2 2.4.7-5.7-3.9-4.2 5.6-1.1m-54.6-5l2.8 5 5.6 1.1-3.9 4.2.7 5.7-5.2-2.4-5.1 2.4.7-5.7-3.9-4.2 5.6-1.1M59.4 75.5H56l-5.1-14.9h3.2l2.8 8.9c.2.6.3 1.2.5 1.9s.3 1.1.3 1.4c.1-.6.3-1.7.8-3.3l2.8-8.9h3.2l-5.1 14.9zM75 63.2h-5.4v3.3h5V69h-5v3.8H75v2.6h-8.6V60.6H75v2.6zm3.1-2.6h4.3c2 0 3.5.4 4.5 1.1s1.5 1.9 1.5 3.4c0 .9-.2 1.7-.7 2.3-.5.7-1.2 1.2-2.1 1.6 2.4 3.6 3.9 5.7 4.4 6.5h-3.5l-3.6-5.7h-1.7v5.7H78l.1-14.9zm3.2 2.6v4h1c1 0 1.7-.2 2.2-.5s.7-.9.7-1.6-.2-1.2-.7-1.5-1.2-.5-2.3-.5l-.9.1zm13.8 12.3h-3.2V60.6h3.2v14.9zm12.3-12.3H102V67h5v2.6h-5.1v5.9h-3.1V60.6h8.6v2.6zm6.1 12.3h-3.2V60.6h3.2v14.9zm12.3-12.3h-5.4v3.3h5V69h-5v3.8h5.4v2.6h-8.6V60.6h8.6v2.6zm3.1-2.6h4.7c2.4 0 4.3.6 5.7 1.9 1.3 1.3 2 3.1 2 5.4 0 2.5-.7 4.3-2.1 5.6-1.4 1.3-3.4 2-6.1 2h-4.2V60.6zm3.2 2.6v9.7h1.4c3 0 4.6-1.6 4.6-4.9 0-3.2-1.4-4.8-4.2-4.8h-1.8z" />
    </symbol>
    <symbol id="dorbel-verified-stamp" viewBox="0 0 160 160">
        <path fill="#31124B" d="M80 3c42.5 0 77 34.5 77 77s-34.5 77-77 77S3 122.5 3 80 37.5 3 80 3m0-3C35.8 0 0 35.8 0 80s35.8 80 80 80 80-35.8 80-80S124.2 0 80 0z" />
        <g fill="#4B3062">
            <path d="M80 146.3c-.2.1-.1.3.5.2l.4-.3-.9.1zm4.1.5c.7-.2 1.5-.6 1-.8-.7.4-.9.3-1.6.7-.6.1-1.1-.1-1-.2-.2.1-.9 0-1.3.2.8.2 1.8.3 2.8-.1.4 0 .1.1.1.2zm50.8-27.7l-.3.3c.2-.1.2-.2.3-.3zm12.6-34.6zm.5-6.4zm-13.1 41l.7-.8c-.1-.1-.4.4-.7.8zM92.1 145c-.2.1-.4.1-.5.2.2 0 .3-.1.5-.2 0 .1 0 0 0 0zm32-13.6l-.2.2c0 .1-.1.2-.1.3l.3-.5zm-10.3 7.3c.3-.1.2-.4.2-.6-.1.2-.2.3-.4.5 0 .1.1.1.2.1zm-18.7 6.9l-.3.1s.2-.1.3-.1zm35.5-20.5h.2c-.1-.1-.2 0-.2 0zm-64.7 19c0 .1 0 .1 0 0 .1.1.1.1 0 0zm14.1 3h-.2v.2l.2-.2zm67-80.7c.1.3.1.2 0 0zm-81.4-53c1.2 0-1.9.8 0 .6-.2-.1 1.5-.8 0-.6zM92.4 145c.2 0 .3-.1.5-.1-.2 0-.4.1-.5.1zM65.6 14h.2-.2zm70.7 27.6c0 .1 0 .2.1.3 0 0 0-.1-.1-.3zm8.4 18.3l-.1-.5c.1.2.1.3.1.5zm-15.2-26.2c-.2-.2-.2-.3-.5-.5 0 0 0 .1.1.1l.4.4zm-8-7.3c0 .1.1.1.1.2.1.1.2.1.3.2l-.4-.4zm-84 103.8c.1.2.2.4.2.5 0-.3 1.2.7-.2-.5zm54.6 15c0-.1.1-.1.3-.2-.1 0-.2 0-.3.2 0-.1 0 0 0 0zm35.5-110.3l-1.1-1.2c.3.4.7.8 1.1 1.2zM16.7 61.8l-.1.4c.1-.2.1-.3.1-.4zm106.1-31.4c-.2-.3-.4-.5-.6-.8-.1 0-.1-.1-.2-.1l.8.9zM37.7 130.7z" />
            <path d="M47.1 136.5c-1.4-.8-.8-.1-1.2 0-1.7-.9-.6-.7-1-1.2-1.1-.5-2-.8-2.7-1.3 0-.1-.1-.2.1-.2-1.2-.5-3-2.2-4.4-2.9-.1-.1-.1-.2-.1-.2.1.3 0 .5-.2.5-.5-.5-1.2-.7-1.2-1.1.3.3.4.2.6.3l-.6-.4c-.3-.7.9.6 1 .4-.6-.4-1.3-.9-1.9-1.3-.6-.5-1.1-.9-1.5-1.3.1-.4 2 1.7 1.1.5l.6.6.6.6c-.6-1.3.8.7.2-.5-.8-.8-1.3-1.2-1.8-1.6-.5-.4-1-.8-1.7-1.7-.5-.2-.1.3-.6.1-1.3-1.1-1.5-1.7-1.7-2.2-.2-.5-.3-1-1.3-1.7-.6-.3-1-.3-1.9-1.7l.7.2c-1.3-1.8-1.2-.7-2.4-2.7.4.2 1.1 1.3 1 1-.6-1.4-.8-.7-1.5-1.7l.1-.4c-1.3-1.9-2.9-4-4.2-6.3.2.1.5.4.3-.2-.9-1.4-1.6-3-2.2-4.6-.6-1.6-1.1-3.3-1.5-4.8l-.7-1.1c-.1-.3 0-.5.1-.3-.2-1.2-.2 0-.5-.5-.2-.7-.1-.9.1-.5-.9-2-2-5.9-2.1-8.2l.2.4c-.2-1.8-.9-1.9-.8-3.6l.1.3c-.3-3.9-.6-8.2 0-11.1-.4-.6.5-3.8 0-4.1.6-2.2.6-1.5 1.3-4.6.2-.8-.1-1.3.1-2.3h.3v-1.4s.1-.2.3-.3c.1-.2.3-.3.3-.3l.2-.9c-.1.4-.4.7-.4.7.1-.7.4-1.6.7-2.3.3-.7.6-1.2.7-1.1 0 0 .2-.9.4-1.7.2-.9.5-1.7.5-1.7.1.1-.1.7-.2 1.2.4-1.9.4-.2.8-1.9-.2.2-.1-.2-.2-.2.5-.7 1.3-2.5 1.9-3.9l.1.3c1.2-2.3 2.5-5 4.1-7.4-.7.8-.8.4-.4-.3l.5-.1c.1-.6-.6.7-.2-.4.7-.9.7-.4.5.2l.7-1.2c.1 0 0 .3 0 .4.2-.6 1.6-1.7 1.8-2.5h.1c.9-1.2 1.6-2 2.2-2.8.6-.8 1.2-1.5 2.1-2.4-.2-.2.5-.9.9-1.6.7-.6 1.4-1.2 2.2-1.8.8-.6 1.6-1.2 2.4-2 1.1-1.1.2-.5.6-1 .2.1 1.9-1.2 1.2-.4 1-.8 1.7-1.3 2.4-1.9.4-.3.7-.6 1.2-.9.5-.3 1-.7 1.6-1.2-.4.1-.7.3-.6.1.5-.4 1.2-.6 1.2-.5l-.1.1c1.5-1.1 3.4-2 5.3-2.8.9-.4 1.9-.7 2.7-1.1.8-.4 1.6-.7 2.2-1.1h-.3s.7-.3 1.4-.7c.7-.4 1.4-.6 1.4-.6 1.3-.4-.7.4.3.3.7-.4 1.4-.6 2-.9.6-.2 1.2-.4 1.8-.5 1.2-.3 2.3-.5 3.6-1 .5.1 1.3 0 2.1-.1s1.7-.3 2.7-.5c1-.1 1.9-.3 2.8-.4.9-.1 1.8-.1 2.5 0l-.2-.2c.7-.2.9 0 1.4.1-.1-.1-.8-.1-.3-.2 3.1-.2 6.2-.1 9.4.3 3.1.4 6.3 1.1 9.3 1.9 2.2.6 1.5-.6 4.2.6l-.9.1c4.6.9 8.9 3.2 13 5.1-.3-.1-.3 0-.7-.2.7.7 3.1 1.8 3.2 1.6.6.4 0 .2.4.6.7.6 2.2 1 2.5 1.5 0 .1-.3-.1-.4-.2.6.3 2.4 1.7 2 1.1.7.5 1.3 1 1.9 1.5.6.5 1.2.9 1.7 1.4.9.4 2.1 2 2.6 1.9-.4.3 1.9 2.3 2.8 3-.3-.2.5.8.1.6.9.9 1.6 1.7 1.7 1.4 1.1 2 3.2 3.2 3.5 4.7 2.4 2.8 4.3 5.6 5.9 8.5-.2.1-.6-.8-1.1-1.5-.4-.8-.9-1.5-1.1-1.3l1.2 1.8c.4.6.7 1.1 1 1.6.7 1 1.2 2.1 1.8 3.6.3.8-.4-.3-.5-.6.8 1.4 1.2 2.8 1.8 4.1.5 1.4 1 2.7 1.4 4 0 0-.2-.3-.3-.5.2.5.3 1.2.5 1.1l-.2-.5c0-.9 1.2 1.9 1.4 2-.8-.8.5 2.7-.6 1.5.1.3.3.8.4.6.1.5 0 .7-.2.2.6 1.9.6 1.2.9 2.9-.1 0-.2-.3-.3-.5.3.8.7 1.7.8 3.2-.1-.1-.1.1-.2-.3.2 1.3.5 2.4.6 3.5.2 1.1.4 2.3.3 3.7-.5-.8-.1 1-.5 1.1 0 0 0 .4.1.8v.8l.2-.6c-.1 1.3.2 2.5 0 3.7v-.5c0-.2-.1-.5-.1-.5v1.3c0 .6-.1 1.3-.1 1.3l.2-1.4c.1 1.4.5-.1.2 1.7 0-.4-.1 1.3-.4 2 0 .7.1 1.4-.1 2.3-.2.2-.4-.3-.5-.1.2.7-.4 3.1-.3 4 0-.3-.2-.3-.3-.3l.1.6c-.2.6-.3.7-.4.5-.5 1.8.6-.5-.1 1.6v-.5c-.6 2.1-1 4.2-1.8 6.1-.5.4.5-1.7 0-1.2-.8 2.8-1.7 5.9-3.1 8.4l.3-.5c.3.6-1.2 1.8-1.7 3.2.1-.3 0-.5 0-.4-.5.8-1 1.7-1.5 2.7-.5 1-1.1 2.1-1.9 3.4l.1-.4c-.8.9-1.8 2.5-2.6 3.4-.1.4-.6.9-.2.7-3 2.5-4.5 5.8-7.5 7.7.3-.3.6-.8.4-.5l-1 1c-.5.5-1.1 1-1.1 1 .3 0 .4-.1 1-.4-.2.3-.7 1-1.3 1.4.9-1-.2-.3-.8 0 .1 0 0 .2.1.2-1.5.6.1.5-1.7 1.6v-.2c-.6.5-1.1 1.1-1.8 1.5-.4 0 .6-.6.5-.8-.9.7-1.6 1.8-2.7 2.1.4-.3 1-.7 1.3-1.1-1.1.4-1.2.5-1.9 1h.1s-.4.2-.9.5c-.4.2-.9.5-.9.5l.5-.2c-.4.7-1.1 1.1-1.8 1.5-.7.4-1.5.8-2.3 1.5 1.5-1.3.2-.4.2-.7-.5.2-1.2.4-1.1.2-.7.7-1.5.5-2.5 1.4-.1-.1-.9.4-.8.1-1.1.6.3 0 .3.2-1.6 1.1-4.2 1.3-6.6 2.6-1.1.4-1.7.7-2.3 1-.6.3-1.2.6-2.2.9-.7 0 .5-.5.5-.5-1.2.1-2 .4-3.1.7.2-.1 0-.2-.4-.2-.9.2-.5.5-1.7.5.2-.1.4-.4.8-.5-.5.1-1 .3-1.5.5-.5.1-1 .3-1.6.4-.3-.1.6-.3 1-.5-1.2.2-3.1.6-3.5.8h.8c-.4 0-.2-.2.1-.3 1-.3 1.5-.1 1.6 0l-.8.2c.4.2 1.2.1 2.1-.1.9-.2 1.8-.6 2.5-.7l-.6.5 1.5-.6c.4 0 .6.2-.1.4 1.1 0 .9-.4 1.9-.3.1 0 .1 0 0 .1l1-.4c-.2.1.2.2-.4.3 2-.2 3-1.1 3.8-1l-.2.1c2.6-.9.2-.4 2-1.3l1.6.3.2-.4c.3-.1.8-.3.7-.1.9-.6-.2-.1.3-.5.7-.1 1.5-.5 2.3-.8.7-.3 1.4-.6 1.6-.4.3-.4-1.3.4 0-.4.3.2.7 0 1.1-.3.4-.3 1-.7 1.6-.8-.2.4-1.3.8-.1.5.2-.4.8-.6 1.4-.9.6-.2 1.2-.5 1.7-.8-.1-.2.4-.5 1.1-.9.7-.4 1.5-.9 2.2-1.5 0 .2 2.9-1.7 4.2-2.6v.1c0-.5 1.4-1.4 2.3-2.3.1.2 0 .4-.5.9l.4-.4.4-.4c.1-.3.4-.6.9-1.1v.4c.6-.5 1.1-1.1 1.7-1.7l1.9-1.9c-.1-.3-1.6.6-.3-1 .2 0 .4.1 0 .6.1-.1.4-.5.6-.8l-.4.8c.7-.6.2-.5.7-1 .1.1.5-.3.5-.1-.1.1-.5.4-.6.7.6-.6 1.4-1.2 1.7-1.4-.1 0-.2-.2.2-.6 1-1.2.5-.2 1.2-.9.2-.4.9-1.1.7-1.3.3-.4.4-.3.6-.4.2-.4.8-1.1 1.2-1.7.4-.6.6-1.1.3-.8l-.1.2s0-.1.1-.1c.3-.6.7-1.1 1.1-1.7.4-.6.8-1.1 1.2-1.7.8-1.1 1.5-2.2 2.1-3.4l.1.1c.4-.7.7-1.5 1.1-2.2.3-.7.7-1.4.8-2 .2-.4.6-.9.6-.7.4-1.1.4-1.3 1.2-2.8-.3 1.2.3-.3-.3 1.2.6-1.4.9-1.7 1.3-3.3.1.6.7-1 .8-1.7l-.5 1c.2-.8.5-1.5.7-2.2l.2.5c1.3-2.9.9-5.7 2-7.9-.1-.9-.5 1.7-.6.9.3-1.4 1-2.8 1.1-3.3.4-2-.2-1.9.1-4-.1.3-.5.5-.5-1.1.2-1.4.6-1.7.7-.8 0 .3-.1.5-.1.5 0 .5 0 1.1.2.5l-.1-.2c.1-.4.2-1 .2-1.6.1-.5.1-.9.2-.7-.1-1.1-.2-.5-.3.3.2-1.9.1-2.9.2-4.8-.1.3-.2.6-.2.3.1-2.8-.2-1.2-.4-3.1.1-1.1.5.4.2-1.5 0-1.2.3-.3.4.2-.2-.9-.2-1.7-.3-2.4v-1.9l.2.9c-.1-.5-.2-1-.2-1.5l-.2.6c0-.5-.1-1 0-1-.3-.5-.3.5-.7-.6 0-.7-.5-2.1-.3-2.4.3 2.3.3-.3.7 1.6-.1-.4-.2-.8-.2-1.4 0-.1.1.1.1.2-.2-2.2-.6-.9-1.1-3.1.2.2.2-.6.1-.9.2.9-.2.5-.5-.3-.3-1.4-.5-1.5-.7-2.2l.2.8c-.2-.2-.4-.9-.8-1.9.1-.1.4.8.3.5-.7-1-.5-2.5-1.3-3.9-.2-.7.3-.2.1-.8-.8-1.6-.5-1.8-1.4-3.5 0 .6.1.6-.7-.4l1.4 2.7-1.1-1.6c.4.8.9 1.7 1.1 2.2-.5-.8-.5-.7-.5-.2-.2-1.3-1.2-2.2-1.6-3.5l.5-.2c-.7-2.1-2-3.3-3.4-5.8l.2.4.2.4c-.4-.2-1-1.4-1.5-2.2.2 0 0-.6-.1-1-.1.1-1.2-1.7-1.7-1.7 0 0-.1-.3-.3-.6-.1-.3-.3-.6-.3-.6-1.3-1.9-2-1.7-3.4-3.4.6.4 0-.5 1.1.5-.5-.6-.9-1.1-1-1-.1-.2-.5-.5-.9-.9-.4-.3-.8-.7-1-1-.3-.2-.5-.1-1-.7 0-.1.1-.1.1-.1-.1.1-1-.8-.6-.2-1.2-2-4.6-4.2-5.8-5.8-1.3-1-2.9-2-4.1-2.8.1 0 .1-.1.3.1-1.6-1.2-1.3-.2-3.1-1.6-.8-.9 1.1.5.6 0 .1-.7-2.4-1.3-3.6-2.4l.3.1c-.9-.7-2.6-1.1-4.4-1.9 0 0 .1 0 .1-.1-1.3-.3-3.6-1.1-5.4-1.6.6-.1.8.1.6-.2-.8-.2.1.5-1.5 0-.5-.3-1.5-.8-1.6-1.1 0 0 .4.1.7.2.4.1.7.2.7.2-.6-.6-1.9-.6-2.7-.9l.1-.1c-2.3-.6-2.4-.2-4.9-.8l.2.2c-1.4.1-1.1-.4-2.5-.4l-.3-.5c-.5 0-1.3-.1-2.2-.1-.9 0-1.9-.1-2.7-.1 1-.2 2.9-.1 4.1-.1-.9-.1-3.1-.4-3.6-.2.4 0 .8 0 1.2.1-1.1.1-2.6.2-4.4.1.4-.8-4.7-.3-6-.8-3.2.4-6.4.3-10.1 1 1.4.4-1.1.2-.7.8-.8.1-1.1.2-1.2.2 0 0-.7.1-1.3.1-.7.1-1.3.1-1.3.1-.7 0 .8-.3.7-.4-1.9.4-.8 0-2.1.1.3.1-.6.5-1.6.7l1.6-.2c-2.5 1-2.4.2-4.8 1.4l.7-.5c-1.3.5-4.8 1.9-5.8 2.9-.3 0-.6 0-.1-.3-3.1 1.3-6.3 3.8-8.6 5l.1-.3c-.5.4-.8.8-1.5 1.1 0-.1.1-.3-.1-.1-.2.2-1.2 1.2-1.9 1.6l.5-.5c-1.4.9-2.3 1.8-3.1 2.6-.8.9-1.5 1.7-2.5 2.7-.3-.3-2.3 1.3-3.2 2.2v-.1c-2.7 2.7-4 5-6 7.9-1.7 1.4-4.3 6-6 9 .3-.4.3.2 0 .8-.5.7-.7 2.2-1 1.9l.1-.3c-.6.4-1.2 2-1.7 3.2l.4.4c-1 1.4-1.7 3.6-2.2 5.6-.2 1-.5 1.9-.7 2.7-.2.8-.4 1.5-.7 1.9-.1.8-.3 1.8-.3 2.7l-.3-.1c-.2 1.1-.4 2-.5 2.9-.2.9-.4 1.9-.4 3.3l-.2-.6c-.1 1.6.6 2.1.6 3.5l-.4.5c0 1.4-.2 2.8-.2 4.2v2.1l.3 2.1c-.1 0-.2-.1-.2-.6 0 1.3.3 5.1.8 4.5-.4.1.4 2.8.9 4.3l-.3-.2c.6 1.2.7 1.2 1.2 2.9.1.4-.1.4-.2-.1.2 1.4.5 1 .9 2.6l-.3-.6c.4 1.4.4 1.3.9 1.9.4.8.8 2.6.6 2.9.2.1.7.8.9 1.6 0 .1-.2-.1-.3-.3.3 1.2.8 1.9 1.2 2.6.4.7.7 1.3 1 2.1-.1.1-.1.2 0 .3-.8-1.7-1.4-3.1-1.3-3-.2.1.4 1.5-.5.6.3.5.8 1.2 1.3 2 .5.7 1 1.5 1.3 2.2v.2l-.1-.1c.1.3.3.6.5.8.2.4.3.7.6 1.1-.1.3.8 1.6 1.2 2.3.2-.2.7.7.4-.2.1.1-.1-.1-.4-.5-.1-.1-.1-.2-.2-.3-.3-.4-.6-1-1-1.6.4.5.8.9 1.1 1.8.4.2.8.5 1 .7.2 1.1 1.2 2.9 1.1 3.3.7.9 1.6 2 2.4 3 .4.5.8.9 1.2 1.3.4.4.8.7 1.1.9.5.5.4.7.5.9-.3-.3-.6-.6-.8-.7.9.9 2.7 2.9 3.2 2.9 1 1.3-.9-.4.8 1.2l-.3-.1c.7.9 1.5 1.6 2.2 2.3.8.6 1.6 1.1 2.3 1.7 1.6 1 3.3 2.1 5.1 3.8-.3-.2-.4-.4-.4-.4 1.1.9 2.3 1.7 3.6 2.5 1.3.7 2.5 1.5 3.9 2.1 2.6 1.3 5.3 2.4 7.9 3.7 1.5.6 1.7.5 2.7.6l.2.4s.4 0 .9.1c.4 0 .9.1.9.1 1.2.2 2.1.7 3.2 1 .5.2 1.1.4 1.7.6.6.1 1.3.2 2 .2l-.3-.3c.5.1 1.4.2 2.1.3.7.1 1.2.2 1.1.3.1 0 .4-.2.8 0v.2h2.6c2 .3-.4.6 2.6.8 1.1 0 3.2-.4 2.8-.5-.4 0-1.1-.1-1.2-.3l1-.1c.2-.5.9-.9-1.5-1.3l-1.7.2-.5-.3h1.4c-.8-.2-1.3-.1-1.9 0-.1-.1-.4-.2-.7-.3l-1.7.3c-.2-.2.8-.3-.3-.5-.8.1.7.5-.6.5-.8-.3-.5-.5-1.5-.4-.1-.1.1-.2.5-.2-.9.1-2.2-.3-2.7-.1-.4-.2-1.1-.3-1.7-.4-.6-.1-1.1-.3-1-.5-.3 0-1.5 0-2.3-.2 1.5-.1-2.8-.8-2.3-1.3-.6.1-1.5-.2-2.5-.5-.5-.2-1-.3-1.5-.5s-1-.3-1.5-.5c.1 0 .3 0 .5.1-1-.4-1.2-.7-1.8-1-.3.3-1.8-.3-2.7-.4-1-.9.9-.1.7-.6 0 .2-.6 0-1.1-.2-.5-.2-.9-.3-.8-.1-.8-.7-.7-.5-1-1-.4.4-.9-.3-1.7-.5-1.1-.9-.1-.6-1.5-1.2-.8-.7.5-.1.5-.1zm-25.9-26.1c.2.3.3.5.4.7-.1-.2-.2-.4-.4-.7zm-1.4-2.8c.2.4.3.8.6 1.2 0 .1-.2.1-.3-.2.1.1-.2-.6-.3-1zm1.4 6.9c-.3-.4-.3-.6-.3-.7.1.2.3.4.5.8h.1c-.2 0-.2-.1-.3-.1z" />
            <path d="M22 115.1c0 .1.1.1.1.2 0-.1-.1-.2-.1-.3-.1 0-.1-.1-.2-.1.1 0 .1.1.2.2zm112.6 4.3s0 .1 0 0zM16 65.2h-.1v.3m106.1 66s-.1 0-.2.1c-.1 0 0-.1.2-.1zm-6.2 4.3l-.9.5c.4-.2.7-.3.9-.5zm-5 2.8v.2-.2zm32.3-77.8c0-.1 0-.1-.1-.2-.2-.5-.1-.2.1.2zm3 26.9v-.9c-.1.5-.1.9 0 .9zm-18.4-52.6l-.1-.1.1.1zm18.5 50.4c-.1.5-.1.9-.1 1.3 0-.4.1-.9.1-1.3zM87 145.7h-.3.3zm-.3.1l-.3.1c.2 0 .3 0 .3-.1zm-.9.2l.6-.1c-.2 0-.5 0-.6.1zm8.8-1.4l.1-.1c-.1 0-.1.1-.1.1zm2.2-.5c-.5.1-1.4.1-2.1.4l-.1.1c.3-.3 1.8-.2 2.2-.5zm9.6-2s-.5.2-.9.3c-.5.2-.9.3-.9.3.4 0 .8-.1 0 .3 2.4-.6-.6 0 1.8-.9zm5.6-2.5c-.9.5.1.1.1.2.6-.4.7-.5-.1-.2zm29.7-32l.2.2c.3-.8-.1-.1-.2-.2zm1.8-8.4l-.2.4c-.1.2-.2.3-.2.3l.1.4s.1-.3.1-.6c.1-.2.2-.5.2-.5zm3-4.3l-.1.3.3-1.3m-23.5-66.5v.4c.4.4.7.2 0-.4zm-29-13.6c-.3-.2-1.2-.5-1.8-.5.7.2 1.4.4 1.8.5zM16 56.4l.1-.6c0-.1-.1.2-.1.6-.1.2-.2.5-.2.5l.2-.5z" />
        </g>
        <path fill-rule="evenodd" clip-rule="evenodd" fill="#31124B" d="M89 51.8c-.9 0-2.2.4-2.2.4v-9.5h-5.2v3.1h1.5v21.4s1.4 1 5.2 1c8.3 0 8.8-6.9 8.8-8.4 0-7.9-6.8-8-8.1-8zm-.5 13.1c-.9 0-1.7-.3-1.7-.3v-9.4s1.2-.2 2-.2 4.5.2 4.5 4.7c0 5.1-4 5.2-4.8 5.2zM50.3 42.7h-5.2v3.1h1.5v6.3s-1.3-.4-2.2-.4c-1.3 0-8.1.2-8.1 8.1 0 1.5.6 8.4 8.8 8.4 3.8 0 5.2-1 5.2-1V42.7zm-3.7 21.9s-.8.3-1.7.3c-.9 0-4.8-.1-4.8-5.3 0-4.5 3.8-4.7 4.5-4.7.7 0 2 .2 2 .2v9.5zM74 55l-.1.1c-.1 0-.1-.1-.1-.1v-2.6h-3.5s0 3.1-2.6 4.5c-.2.1-.5.2-.7.3-.8-3-2.9-5.5-7.3-5.5-5.5 0-7.6 4.5-7.6 8.3 0 4.1 2.1 8.3 7.6 8.3 5.4 0 7.5-4.3 7.6-8 1.1-.3 2.1-.8 2.8-1.4l.1-.1v8.9H74V62c0-.7.1-2.9 1.2-4.5.6-.9 1.6-1.7 2.9-1.7v2.4h3.1V52c-.2-.1-.9-.2-1.2-.2-4 .1-5.9 3.1-6 3.2zM59.7 65.1c-2.9 0-3.7-2.9-3.7-5.1 0-2.2.8-5.1 3.7-5.1 1.9 0 2.9 1.3 3.4 2.9h-1.9v3c.5 0 1 .1 1.5.1h.6c-.1 1.9-1.1 4.2-3.6 4.2zm65-1.2l-1.4-2c-.6 2-1.8 2.4-2.7 2.4-1.4 0-1.7-1.3-1.7-2.1V42.7h-5.2v3.1h1.5v15.7c-1.5 2.6-4.3 3.7-7 3.7-4.7 0-5.1-2.9-5.1-3.1 0 0 0-.1.1-.1.2.1 1.5.2 1.6.2 7.2 0 7.3-5.1 7.3-5.6 0-4.9-4.8-4.9-5.3-4.9-6.9 0-7.9 6.1-7.9 8.2 0 2.2.2 8.4 9.1 8.4 3.8 0 6.3-1.4 7.6-2.7.6 1.4 2.1 2.4 4 2.4 3.7 0 5.3-3 5.3-3.9l-.2-.2zm-22-4.8c0-2 1.3-4.2 3.6-4.2.4 0 2 .1 2 1.7 0 .3-.1 2.7-3.9 2.7-1.3 0-1.7-.2-1.7-.2z" />
        <path fill="#5A1592" d="M80.1 105.5l4.2 7.5 8.4 1.7-5.9 6.2 1.1 8.5-7.8-3.6-7.8 3.6 1-8.5-5.8-6.2 8.4-1.7m32.8-7.5l2.8 5 5.6 1.1-3.9 4.2.7 5.7-5.2-2.4-5.2 2.4.7-5.7-3.9-4.2 5.6-1.1m-54.6-5l2.8 5 5.6 1.1-3.9 4.2.7 5.7-5.2-2.4-5.1 2.4.7-5.7-3.9-4.2 5.6-1.1" />
        <path d="M43.4 91.5H40l-5.1-14.9h3.2l2.8 8.9c.2.6.3 1.2.5 1.9s.3 1.1.3 1.4c.1-.6.3-1.7.8-3.3l2.8-8.9h3.2l-5.1 14.9zM59 79.2h-5.4v3.3h5V85h-5v3.8H59v2.6h-8.6V76.6H59v2.6zm3.1-2.6h4.3c2 0 3.5.4 4.5 1.1 1 .7 1.5 1.9 1.5 3.4 0 .9-.2 1.7-.7 2.3-.5.7-1.2 1.2-2.1 1.6 2.4 3.6 3.9 5.7 4.4 6.5h-3.5l-3.6-5.7h-1.7v5.7H62V76.6zm3.2 2.6v4h1c1 0 1.7-.2 2.2-.5.5-.3.7-.9.7-1.6s-.2-1.2-.7-1.5c-.5-.3-1.2-.5-2.3-.5h-.9zm13.8 12.3h-3.2V76.6h3.2v14.9zm12.3-12.3H86V83h5v2.6h-5.1v5.9h-3.1V76.6h8.6v2.6zm6.1 12.3h-3.2V76.6h3.2v14.9zm12.3-12.3h-5.4v3.3h5V85h-5v3.8h5.4v2.6h-8.6V76.6h8.6v2.6zm3.1-2.6h4.7c2.4 0 4.3.6 5.7 1.9 1.3 1.3 2 3.1 2 5.4 0 2.5-.7 4.3-2.1 5.6-1.4 1.3-3.4 2-6.1 2h-4.2V76.6zm3.2 2.6v9.7h1.4c3 0 4.6-1.6 4.6-4.9 0-3.2-1.4-4.8-4.2-4.8h-1.8z" fill="#31124B" />
    </symbol>
    <symbol id="dorbel_apt_triangle_a" viewBox="-28 30 70 70">
        <style>
        .st0 {
            fill: #F09B0A;
        }
        </style>
        <path class="st0" d="M-28 30l70 70V30h-70z" />
    </symbol>
    <symbol id="dorbel_apt_triangle_b" viewBox="-28 30 70 70">
        <style>
        .st0 {
            fill: #2A80B9;
        }
        </style>
        <path class="st0" d="M-28 30l70 70V30h-70z" />
    </symbol>
    <symbol id="dorbel_arrow" viewBox="25.3 -26.1 34.6 75.2">
        <style>
        .st0 {
            fill: #D8D8D8;
        }
        </style>
        <path class="st0" d="M27 49c.5-.1.9-.6.8-1.2 0-.1-1.8-8.9 1.3-22.1 2.7-12 10-30 29.2-48.7l-.3 6.1 1.5.1.5-9.3-9.3.2v1.5l6.6-.1c-20 18.9-27.3 37.7-30.1 50-3 13.6-1.4 22.3-1.3 22.7 0 .6.6 1 1.1.8z" />
    </symbol>
    <symbol id="dorbel_banner" viewBox="0 0 1600 183.8">
        <path fill="#382E2F" d="M653.7 179.2l-46.9-3.5c-1.7-.1-2.9-1.6-2.8-3.2l5.2-69.2 52.9 3.9-5.2 69.2c-.1 1.7-1.5 2.9-3.2 2.8z" />
        <path fill="#31124B" d="M732.1 182.4l-47-1.8c-1.7-.1-2.9-1.5-2.9-3.1l2.7-69.3 53 2-2.7 69.3c-.1 1.7-1.5 3-3.1 2.9z" />
        <path fill="#EA441A" d="M809 182.8l-47-.4c-1.7 0-3-1.4-3-3l.6-69.4 53 .5-.6 69.4c0 1.5-1.4 2.9-3 2.9z" />
        <path fill="#7D44AC" d="M885.2 180.8l-47 1.5c-1.7.1-3-1.2-3.1-2.9l-2.3-69.3 53-1.7 2.3 69.3c.1 1.6-1.2 3-2.9 3.1z" />
        <path fill="#382E2F" d="M957.5 179.4l-47 2c-1.7.1-3.1-1.2-3.1-2.9l-2.9-69.3 53-2.2 2.9 69.3c0 1.6-1.2 3-2.9 3.1z" />
        <path fill="#31124B" d="M1028.6 174.2l-46.9 3.5c-1.7.1-3.1-1.1-3.2-2.8l-5.1-69.2 52.9-3.9 5.1 69.2c.1 1.6-1.1 3-2.8 3.2z" />
        <path fill="#FFF" d="M634.7 128.5c1.8.1 3.5.5 5.1 1.2 1.5.7 2.9 1.7 3.9 2.9 1.1 1.3 1.9 2.8 2.4 4.6.5 1.8.7 3.9.6 6.3-.1 2.1-.5 4-1.2 5.7-.7 1.7-1.6 3.2-2.7 4.4-1.2 1.2-2.6 2.1-4.2 2.7-1.7.6-3.6.9-5.8.7l-12.3-.8 2-28.5 12.2.8zm-2.1 23.2c.9.1 1.8 0 2.7-.3s1.7-.7 2.4-1.3c.7-.6 1.3-1.5 1.8-2.5.5-1.1.8-2.4.9-3.9.1-1.4 0-2.7-.2-3.9-.2-1.2-.6-2.2-1.2-3.1-.6-.9-1.4-1.6-2.4-2.1s-2.3-.8-3.8-.9l-4.5-.3-1.2 18 5.5.3zm64-11.3c.7-1.8 1.7-3.4 2.9-4.7 1.2-1.3 2.8-2.3 4.5-3 1.8-.7 3.8-1 5.9-.9 2.2.1 4.2.5 5.9 1.4 1.7.8 3.1 2 4.3 3.4 1.1 1.4 2 3 2.6 4.9.6 1.8.8 3.8.7 6-.1 2.1-.5 4-1.2 5.8-.7 1.8-1.7 3.3-2.9 4.6-1.2 1.3-2.8 2.3-4.5 3-1.8.7-3.7 1-6 .9-2.2-.1-4.1-.5-5.9-1.4-1.7-.8-3.2-1.9-4.3-3.3-1.2-1.4-2-3-2.6-4.8-.6-1.8-.8-3.8-.7-5.9.2-2.2.6-4.2 1.3-6zm5.4 9.7c.2 1.1.6 2.2 1.2 3.1.6.9 1.4 1.7 2.3 2.3 1 .6 2.2.9 3.6 1 1.4.1 2.6-.2 3.6-.7 1-.5 1.8-1.2 2.5-2.1.6-.9 1.1-1.9 1.5-3 .3-1.1.5-2.3.5-3.5 0-1.3 0-2.5-.3-3.7-.2-1.2-.6-2.2-1.2-3.2-.6-.9-1.4-1.7-2.3-2.3-1-.6-2.2-.9-3.6-1-1.4-.1-2.6.2-3.6.7-1 .5-1.8 1.2-2.5 2.1-.6.9-1.1 1.9-1.5 3.1-.3 1.2-.5 2.4-.6 3.6 0 1.3.1 2.4.4 3.6zm87-16c1.3 0 2.4.2 3.5.6 1 .4 1.9 1 2.6 1.7.7.7 1.3 1.6 1.7 2.5.4.9.6 2 .6 3.1 0 1.7-.4 3.1-1.1 4.4-.7 1.2-1.9 2.1-3.5 2.8v.1c.8.2 1.4.5 1.9 1 .5.4.9 1 1.2 1.6.3.6.5 1.3.7 2 .1.7.2 1.4.3 2.2 0 .5 0 1 .1 1.6 0 .6.1 1.2.1 1.9l.3 1.8c.1.6.4 1.1.7 1.5h-6.3c-.3-.9-.5-2-.6-3.2-.1-1.3-.2-2.5-.3-3.6-.2-1.5-.7-2.6-1.3-3.3-.7-.7-1.8-1.1-3.4-1.1h-6.3l-.1 11.2h-6.3l.2-28.6 15.3-.2zm-2.3 12.9c1.4 0 2.5-.3 3.2-.9s1.1-1.7 1.1-3.1c0-1.4-.3-2.4-1.1-3-.7-.6-1.8-1-3.2-1h-6.9v8h6.9zm74.8-13.7c1.4 0 2.6.1 3.7.3 1.1.2 2.1.6 2.9 1.1.8.5 1.5 1.2 1.9 2.1s.7 2 .7 3.3c0 1.4-.3 2.6-.9 3.6-.6 1-1.6 1.8-2.8 2.4 1.8.5 3.1 1.3 4 2.6.9 1.2 1.4 2.8 1.4 4.5 0 1.4-.2 2.7-.8 3.8-.5 1.1-1.3 1.9-2.2 2.6-.9.7-2 1.2-3.2 1.6s-2.4.5-3.7.6l-13.8.3-.7-28.6 13.5-.2zm-.5 11.6c1.1 0 2-.3 2.7-.9.7-.5 1-1.4 1-2.6 0-.7-.1-1.2-.4-1.6-.2-.4-.6-.7-1-1-.4-.2-.9-.4-1.4-.5-.5-.1-1.1-.1-1.6-.1l-5.9.1.2 6.7 6.4-.1zm.6 12.1c.6 0 1.2-.1 1.8-.2.6-.1 1-.3 1.5-.6.4-.3.8-.7 1-1.2.2-.5.4-1.1.3-1.8 0-1.5-.5-2.5-1.3-3.1-.8-.6-1.9-.9-3.3-.9l-6.8.2.2 7.8 6.6-.2zm81.3-27l.3 5.3-15.1.8.3 6.1 13.8-.7.3 4.9-13.8.7.4 7 15.4-.8.3 5.3-21.6 1.2-1.5-28.5 21.2-1.3zm56-4l2 23.2 13.9-1.2.4 5.3-20.1 1.7-2.4-28.5 6.2-.5z" />
        <path fill="#31124B" d="M1491.9 32.1c-184.8 48.7-430.5 75.5-691.9 75.5S292.9 80.8 108.1 32.1C69 21.8 33.6 10.8 2-.9 1-1.3 0-.5 0 .5c0 .6.4 1.2 1 1.4C32.6 13.6 68.1 24.7 107.4 35c185 48.8 431 75.6 692.6 75.6s507.6-26.9 692.6-75.6c39.3-10.3 74.8-21.4 106.4-33.1.6-.2 1-.8 1-1.4 0-1-1-1.8-2-1.4-31.6 11.7-67 22.7-106.1 33z" />
    </symbol>
    <symbol id="dorbel_banner_b" viewBox="672 6.6 1600 213.4">
        <path fill="#CCC" d="M2163.9 48.5C1979.1 110.1 1733.4 144 1472 144s-507.1-33.9-691.9-95.5C741 35.5 705.6 21.6 674 6.8c-1-.5-2 .5-2 1.8 0 .8.4 1.5 1 1.8 31.6 14.8 67.1 28.8 106.4 41.9 185 61.7 431 95.6 692.6 95.6s507.6-34 692.6-95.6c39.3-13 74.8-27.1 106.4-41.9.6-.3 1-1 1-1.8 0-1.3-1-2.3-2-1.8-31.6 14.8-67 28.7-106.1 41.7z" />
        <path fill="#382E2F" d="M1319.7 215.4l-23.4-7.8-23.4 4.2c-.9-.1-1.6-.4-2.1-1s-.8-1.4-.7-2.2l2.6-34.6 2.6-34.6 26.5 1.9 26.5 2-2.6 34.6-2.6 34.6c-.1.9-.4 1.6-1 2.1-.8.6-1.5.8-2.4.8z" />
        <path fill="#31124B" d="M1398.1 218.6l-23.5-6.9-23.5 5.1c-.8-.1-1.6-.4-2.1-1s-.8-1.3-.8-2.1l1.3-34.6 1.3-34.7 26.5 1 26.5 1-1.3 34.7-1.3 34.6c-.1.9-.4 1.6-1 2.1-.5.5-1.3.8-2.1.8z" />
        <path fill="#EA441A" d="M1475 220l-23.5-6.2-23.5 5.8c-.8 0-1.6-.3-2.1-.9-.5-.6-.9-1.3-.9-2.1l.3-34.7.3-34.7 26.5.2 26.5.2-.3 34.7-.3 34.7c0 .8-.3 1.5-.9 2-.5.6-1.3 1-2.1 1z" />
        <path fill="#7D44AC" d="M1551.2 218.3l-23.5-5.2-23.5 6.8c-.8.1-1.6-.2-2.1-.8-.6-.5-.9-1.3-.9-2.1l-1.2-34.6-1.2-34.7 26.5-.8 26.5-.9 1.2 34.7 1.2 34.6c0 .8-.3 1.5-.8 2.1-.6.5-1.3.9-2.2.9z" />
        <path fill="#382E2F" d="M1623.5 215.6l-23.5-5-23.5 7c-.8.1-1.6-.2-2.2-.8s-.9-1.3-.9-2.1l-1.5-34.6-1.4-34.7 26.5-1.1 26.5-1.1 1.4 34.7 1.5 34.6c0 .8-.3 1.6-.8 2.1-.5.6-1.3 1-2.1 1z" />
        <path fill="#31124B" d="M1694.6 210.4l-23.5-4.2-23.4 7.8c-.8.1-1.6-.2-2.2-.7-.6-.5-1-1.2-1-2.1l-2.6-34.6-2.6-34.6 26.5-1.9 26.4-1.9 2.5 34.6 2.6 34.6c.1.8-.2 1.6-.7 2.1s-1.2.8-2 .9z" />
        <path fill="#FFF" d="M1300.7 164.7c1.8.1 3.5.5 5.1 1.2 1.5.7 2.9 1.7 3.9 2.9 1.1 1.3 1.9 2.8 2.4 4.6s.7 3.9.6 6.3c-.1 2.1-.5 4-1.2 5.7s-1.6 3.2-2.7 4.4c-1.2 1.2-2.6 2.1-4.2 2.7-1.7.6-3.6.9-5.8.7l-12.3-.8 2-28.5 12.2.8zm-2.1 23.2c.9.1 1.8 0 2.7-.3.9-.3 1.7-.7 2.4-1.3.7-.6 1.3-1.5 1.8-2.5.5-1.1.8-2.4.9-3.9.1-1.4 0-2.7-.2-3.9-.2-1.2-.6-2.2-1.2-3.1-.6-.9-1.4-1.6-2.4-2.1s-2.3-.8-3.8-.9l-4.5-.3-1.2 18 5.5.3zm64-11.3c.7-1.8 1.7-3.4 2.9-4.7s2.8-2.3 4.5-3c1.8-.7 3.8-1 5.9-.9 2.2.1 4.2.5 5.9 1.4 1.7.8 3.1 2 4.3 3.4 1.1 1.4 2 3 2.6 4.9.6 1.8.8 3.8.7 6-.1 2.1-.5 4-1.2 5.8-.7 1.8-1.7 3.3-2.9 4.6-1.2 1.3-2.8 2.3-4.5 3-1.8.7-3.7 1-6 .9-2.2-.1-4.1-.5-5.9-1.4-1.7-.8-3.2-1.9-4.3-3.3-1.2-1.4-2-3-2.6-4.8s-.8-3.8-.7-5.9c.2-2.2.6-4.2 1.3-6zm5.4 9.7c.2 1.1.6 2.2 1.2 3.1.6.9 1.4 1.7 2.3 2.3 1 .6 2.2.9 3.6 1s2.6-.2 3.6-.7 1.8-1.2 2.5-2.1c.6-.9 1.1-1.9 1.5-3 .3-1.1.5-2.3.5-3.5 0-1.3 0-2.5-.3-3.7-.2-1.2-.6-2.2-1.2-3.2-.6-.9-1.4-1.7-2.3-2.3-1-.6-2.2-.9-3.6-1-1.4-.1-2.6.2-3.6.7s-1.8 1.2-2.5 2.1c-.6.9-1.1 1.9-1.5 3.1-.3 1.2-.5 2.4-.6 3.6 0 1.3.1 2.4.4 3.6zm87-15c1.3 0 2.4.2 3.5.6 1 .4 1.9 1 2.6 1.7.7.7 1.3 1.6 1.7 2.5.4.9.6 2 .6 3.1 0 1.7-.4 3.1-1.1 4.4-.7 1.2-1.9 2.1-3.5 2.8v.1c.8.2 1.4.5 1.9 1 .5.4.9 1 1.2 1.6s.5 1.3.7 2c.1.7.2 1.4.3 2.2 0 .5 0 1 .1 1.6 0 .6.1 1.2.1 1.9l.3 1.8c.1.6.4 1.1.7 1.5h-6.3c-.3-.9-.5-2-.6-3.2-.1-1.3-.2-2.5-.3-3.6-.2-1.5-.7-2.6-1.3-3.3-.7-.7-1.8-1.1-3.4-1.1h-6.3l-.1 11.2h-6.3l.2-28.6 15.3-.2zm-2.3 12.9c1.4 0 2.5-.3 3.2-.9s1.1-1.7 1.1-3.1c0-1.4-.3-2.4-1.1-3-.7-.6-1.8-1-3.2-1h-6.9v8h6.9zm74.8-13.4c1.4 0 2.6.1 3.7.3 1.1.2 2.1.6 2.9 1.1.8.5 1.5 1.2 1.9 2.1.4.9.7 2 .7 3.3 0 1.4-.3 2.6-.9 3.6-.6 1-1.6 1.8-2.8 2.4 1.8.5 3.1 1.3 4 2.6.9 1.2 1.4 2.8 1.4 4.5 0 1.4-.2 2.7-.8 3.8-.5 1.1-1.3 1.9-2.2 2.6-.9.7-2 1.2-3.2 1.6s-2.4.5-3.7.6l-13.8.3-.7-28.6 13.5-.2zm-.5 11.6c1.1 0 2-.3 2.7-.9.7-.5 1-1.4 1-2.6 0-.7-.1-1.2-.4-1.6-.2-.4-.6-.7-1-1-.4-.2-.9-.4-1.4-.5s-1.1-.1-1.6-.1l-5.9.1.2 6.7 6.4-.1zm.6 12.1c.6 0 1.2-.1 1.8-.2.6-.1 1-.3 1.5-.6.4-.3.8-.7 1-1.2.2-.5.4-1.1.3-1.8 0-1.5-.5-2.5-1.3-3.1-.8-.6-1.9-.9-3.3-.9l-6.8.2.2 7.8 6.6-.2zm81.3-28.3l.3 5.3-15.1.8.3 6.1 13.8-.7.3 4.9-13.8.7.4 7 15.4-.8.3 5.3-21.6 1.2-1.5-28.5 21.2-1.3zm56-4l2 23.2 13.9-1.2.4 5.3-20.1 1.7-2.4-28.5 6.2-.5z" />
    </symbol>
    <symbol id="dorbel_banner_c" viewBox="1362 -24.4 1600 212">
        <path fill="#EEE" d="M2961-23.1c-31.6 14.8-67.1 28.8-106.4 41.9-185 61.6-431 95.6-692.6 95.6s-507.6-33.9-692.6-95.6c-39.3-13-74.8-27.1-106.4-41.9-.5-.2-.8-.7-.9-1.3 0 .2-.1.3-.1.5 0 .8.4 1.5 1 1.8 31.6 14.8 67.1 28.8 106.4 41.9 185 61.7 431 95.6 692.6 95.6s507.6-34 692.6-95.6c39.3-13 74.8-27.1 106.4-41.9.6-.3 1-1 1-1.8 0-.2 0-.4-.1-.5-.1.6-.4 1.1-.9 1.3z" />
        <path fill="#382E2F" d="M2009.7 183l-46.9-3.5c-1.7-.1-2.9-1.6-2.8-3.2l5.2-69.2 52.9 3.9-5.2 69.2c-.1 1.7-1.5 2.9-3.2 2.8z" />
        <path fill="#31124B" d="M2088.1 186.2l-47-1.8c-1.7-.1-2.9-1.5-2.9-3.1l2.7-69.3 53 2-2.7 69.3c-.1 1.7-1.5 3-3.1 2.9z" />
        <path fill="#EA441A" d="M2165 187.6l-47-.4c-1.7 0-3-1.4-3-3l.6-69.4 53 .5-.6 69.4c0 1.5-1.4 2.9-3 2.9z" />
        <path fill="#7D44AC" d="M2241.2 185.9l-47 1.5c-1.7.1-3-1.2-3.1-2.9l-2.3-69.3 53-1.7 2.3 69.3c.1 1.6-1.2 3-2.9 3.1z" />
        <path fill="#382E2F" d="M2313.5 183.2l-47 2c-1.7.1-3.1-1.2-3.1-2.9l-2.9-69.3 53-2.2 2.9 69.3c0 1.6-1.2 3-2.9 3.1z" />
        <path fill="#31124B" d="M2384.6 178l-46.9 3.5c-1.7.1-3.1-1.1-3.2-2.8l-5.1-69.2 52.9-3.9 5.1 69.2c.1 1.6-1.1 3-2.8 3.2z" />
        <path fill="#FFF" d="M1990.7 132.3c1.8.1 3.5.5 5.1 1.2 1.5.7 2.9 1.7 3.9 2.9 1.1 1.3 1.9 2.8 2.4 4.6s.7 3.9.6 6.3c-.1 2.1-.5 4-1.2 5.7s-1.6 3.2-2.7 4.4c-1.2 1.2-2.6 2.1-4.2 2.7-1.7.6-3.6.9-5.8.7l-12.3-.8 2-28.5 12.2.8zm-2.1 23.2c.9.1 1.8 0 2.7-.3.9-.3 1.7-.7 2.4-1.3.7-.6 1.3-1.5 1.8-2.5.5-1.1.8-2.4.9-3.9.1-1.4 0-2.7-.2-3.9s-.6-2.2-1.2-3.1c-.6-.9-1.4-1.6-2.4-2.1s-2.3-.8-3.8-.9l-4.5-.3-1.2 18 5.5.3zm64-11.3c.7-1.8 1.7-3.4 2.9-4.7s2.8-2.3 4.5-3c1.8-.7 3.8-1 5.9-.9 2.2.1 4.2.5 5.9 1.4 1.7.8 3.1 2 4.3 3.4 1.1 1.4 2 3 2.6 4.9.6 1.8.8 3.8.7 6-.1 2.1-.5 4-1.2 5.8-.7 1.8-1.7 3.3-2.9 4.6s-2.8 2.3-4.5 3c-1.8.7-3.7 1-6 .9-2.2-.1-4.1-.5-5.9-1.4-1.7-.8-3.2-1.9-4.3-3.3-1.2-1.4-2-3-2.6-4.8s-.8-3.8-.7-5.9c.2-2.2.6-4.2 1.3-6zm5.4 9.7c.2 1.1.6 2.2 1.2 3.1.6.9 1.4 1.7 2.3 2.3 1 .6 2.2.9 3.6 1 1.4.1 2.6-.2 3.6-.7s1.8-1.2 2.5-2.1c.6-.9 1.1-1.9 1.5-3 .3-1.1.5-2.3.5-3.5 0-1.3 0-2.5-.3-3.7-.2-1.2-.6-2.2-1.2-3.2-.6-.9-1.4-1.7-2.3-2.3-1-.6-2.2-.9-3.6-1-1.4-.1-2.6.2-3.6.7s-1.8 1.2-2.5 2.1c-.6.9-1.1 1.9-1.5 3.1-.3 1.2-.5 2.4-.6 3.6 0 1.3.1 2.4.4 3.6zm87-15c1.3 0 2.4.2 3.5.6 1 .4 1.9 1 2.6 1.7.7.7 1.3 1.6 1.7 2.5.4.9.6 2 .6 3.1 0 1.7-.4 3.1-1.1 4.4-.7 1.2-1.9 2.1-3.5 2.8v.1c.8.2 1.4.5 1.9 1 .5.4.9 1 1.2 1.6s.5 1.3.7 2c.1.7.2 1.4.3 2.2 0 .5 0 1 .1 1.6 0 .6.1 1.2.1 1.9l.3 1.8s.4 1.1.7 1.5h-6.3c-.3-.9-.5-2-.6-3.2-.1-1.3-.2-2.5-.3-3.6-.2-1.5-.7-2.6-1.3-3.3-.7-.7-1.8-1.1-3.4-1.1h-6.3l-.1 11.2h-6.3l.2-28.6 15.3-.2zm-2.3 12.9c1.4 0 2.5-.3 3.2-.9s1.1-1.7 1.1-3.1c0-1.4-.3-2.4-1.1-3-.7-.6-1.8-1-3.2-1h-6.9v8h6.9zm74.8-13.4c1.4 0 2.6.1 3.7.3s2.1.6 2.9 1.1c.8.5 1.5 1.2 1.9 2.1.4.9.7 2 .7 3.3 0 1.4-.3 2.6-.9 3.6-.6 1-1.6 1.8-2.8 2.4 1.8.5 3.1 1.3 4 2.6.9 1.2 1.4 2.8 1.4 4.5 0 1.4-.2 2.7-.8 3.8-.5 1.1-1.3 1.9-2.2 2.6-.9.7-2 1.2-3.2 1.6s-2.4.5-3.7.6l-13.8.3-.7-28.6 13.5-.2zm-.5 11.6c1.1 0 2-.3 2.7-.9.7-.5 1-1.4 1-2.6 0-.7-.1-1.2-.4-1.6-.2-.4-.6-.7-1-1-.4-.2-.9-.4-1.4-.5s-1.1-.1-1.6-.1l-5.9.1.2 6.7 6.4-.1zm.6 12.1c.6 0 1.2-.1 1.8-.2.6-.1 1-.3 1.5-.6.4-.3.8-.7 1-1.2.2-.5.4-1.1.3-1.8 0-1.5-.5-2.5-1.3-3.1-.8-.6-1.9-.9-3.3-.9l-6.8.2.2 7.8 6.6-.2zm81.3-28.3l.3 5.3-15.1.8.3 6.1 13.8-.7.3 4.9-13.8.7.4 7 15.4-.8.3 5.3-21.6 1.2-1.5-28.5 21.2-1.3zm56-4l2 23.2 13.9-1.2.4 5.3-20.1 1.7-2.4-28.5 6.2-.5z" />
    </symbol>
    <symbol id="dorbel_icon_bed" viewBox="-74.9 44 57.1 44">
        <style>
        .st0 {
            fill: #6E6E6E;
        }
        </style>
        <path class="st0" d="M-49 59h-2v-5h-10v5h-2v-4.3c0-1.3.9-2.7 2.2-2.7h9.5c1.3 0 2.3 1.4 2.3 2.7V59zm19 0h-2v-5h-10v5h-2v-4.3c0-1.3.9-2.7 2.2-2.7h9.5c1.3 0 2.3 1.4 2.3 2.7V59z" />
        <path class="st0" d="M-21.6 63H-23V49.9c0-3.3-2.7-5.9-5.9-5.9h-35.4c-3.1 0-5.7 2.5-5.7 5.6V63h-1.4c-1.9 0-3.6 1.6-3.6 3.5v13.2c0 1.8 1.6 3.3 3.4 3.3h5.6v4c0 .6.4 1 1 1s1-.4 1-1v-4h34v4c0 .6.4 1 1 1s1-.4 1-1v-4h6.6c2 0 3.4-1.6 3.4-3.6V66.6c0-2-1.6-3.6-3.6-3.6zM-68 49.9c0-2 1.6-3.9 3.6-3.9h35.7c2 0 3.7 1.9 3.7 3.9V63h-43V49.9zM-20 80c0 .6-.5 1-1 1h-51c-.6 0-1-.4-1-1V66c0-.6.4-1 1-1h51c.5 0 1 .4 1 1v14z" />
        <path class="st0" d="M-32.3 52h-9.5c-1.3 0-2.2 1.4-2.2 2.7V59h2v-5h10v5h2v-4.3c0-1.3-1-2.7-2.3-2.7zm-19 0h-9.5c-1.3 0-2.2 1.4-2.2 2.7V59h2v-5h10v5h2v-4.3c0-1.3-1-2.7-2.3-2.7z" />
    </symbol>
    <symbol id="dorbel_icon_calendar" viewBox="-95 65 25 20">
        <path fill="#382E2F" d="M-75 77.5c0 .3-.2.5-.5.5h-14c-.3 0-.5-.2-.5-.5s.2-.5.5-.5h14c.3 0 .5.2.5.5zm0 3c0 .3-.2.5-.5.5h-14c-.3 0-.5-.2-.5-.5s.2-.5.5-.5h14c.3 0 .5.2.5.5z" />
        <path fill="none" d="M-94 83.1c0 .3 0 .9.3.9h22.1c.3 0 .6-.6.6-.9V73h-23v10.1z" />
        <path fill="#382E2F" d="M-71.6 65H-75v1.3c0 .6-.4 1.1-1 1.1s-1-.4-1-1.1V65h-11v1.3c0 .6-.4 1.1-1 1.1s-1-.4-1-1.1V65h-3.7c-.8 0-1.3.9-1.3 1.9v16.3c0 .8.5 1.8 1.3 1.8h22.1c.8 0 1.6-.9 1.6-1.9V66.9c0-1-.7-1.9-1.6-1.9zm.6 18.1c0 .3-.3.9-.6.9h-22.1c-.3 0-.3-.6-.3-.9V73h23v10.1z" />
    </symbol>
    <symbol id="dorbel_icon_clock" viewBox="0 0 20 20">
        <path fill="#382E2F" d="M10 2c4.4 0 8 3.6 8 8s-3.6 8-8 8-8-3.6-8-8 3.6-8 8-8m0-2C4.5 0 0 4.5 0 10s4.5 10 10 10 10-4.5 10-10S15.5 0 10 0z" />
        <path fill="#382E2F" d="M13.9 12.7L11 10V6c0-.6-.4-1-1-1s-1 .4-1 1v4l3.7 3.9c.3.3.9.3 1.2 0 .3-.3.3-.9 0-1.2z" />
    </symbol>
    <symbol id="dorbel_icon_location" viewBox="-97.1 45.7 31.1 43.9">
        <style>
        .st0 {
            fill: #6E6E6E;
        }
        </style>
        <path class="st0" d="M-81.5 89.6c-.7 0-1.5-.4-2-1-3-4-10.2-14-12.7-22.2-.5-1.5-.7-3-.9-4.6v-.6c0-8.6 7-15.5 15.5-15.5 4.1 0 8.1 1.6 11.1 4.6 2.9 2.9 4.5 6.8 4.5 10.9v.6c0 1.6-.4 3.1-.9 4.6-2.5 8.2-9.7 18.3-12.7 22.1-.4.7-1.2 1.1-1.9 1.1zm0-41.5c-7.2 0-13.1 5.8-13.1 13.1v.5c0 1.4.4 2.6.7 4 2.5 8.1 10.1 18.5 12.3 21.5 2.9-3.9 9.9-13.5 12.3-21.5.5-1.4.7-2.6.7-4v-.5c0-3.5-1.4-6.7-3.9-9.2-2.3-2.5-5.6-3.9-9-3.9z" />
        <path class="st0" d="M-81.3 66.1c-2.7 0-5-2.2-5-5 0-2.7 2.2-5 5-5 2.7 0 5 2.2 5 5s-2.3 5-5 5zm0-7.4c-1.4 0-2.5 1.1-2.5 2.5s1.1 2.5 2.5 2.5 2.5-1.1 2.5-2.5-1.1-2.5-2.5-2.5z" />
    </symbol>
    <symbol id="dorbel_icon_ruler" viewBox="-75.4 41.6 43.9 43.9">
        <style>
        .st0 {
            fill: #6E6E6E;
        }
        </style>
        <path class="st0" d="M-32.4 72.6l-30.1-30.1c-1.2-1.2-3.1-1.2-4.2 0l-7.9 7.9c-1.2 1.2-1.2 3.1 0 4.2l30.1 30.1c1.2 1.2 3.1 1.2 4.2 0l7.9-7.9c1.2-1.2 1.2-3.1 0-4.2zm-9.3 10.7c-.4.4-1 .4-1.4 0l-3.5-3.5 2.1-2.1c.4-.4.4-1 0-1.4-.4-.4-1-.4-1.4 0l-2.2 2-2.8-2.8 2.1-2.1c.4-.4.4-1 0-1.4-.4-.4-1-.4-1.4 0l-2.1 2.1-2.8-2.8 2.1-2.1c.4-.4.4-1 0-1.4-.4-.4-1-.4-1.4 0l-2.1 2.1-2.8-2.8 2.1-2.1c.4-.4.4-1 0-1.4-.4-.4-1-.4-1.4 0l-2.1 2.1-2.8-2.8 2.1-2.1c.4-.4.4-1 0-1.4-.4-.4-1-.4-1.4 0l-2.1 2.1-2.8-2.8 2.1-2.1c.4-.4.4-1 0-1.4-.4-.4-1-.4-1.4 0l-2.3 1.9-3.5-3.5c-.4-.4-.4-1 0-1.4l7.9-7.9c.4-.4 1-.4 1.4 0l30.1 30.1c.4.4.4 1 0 1.4l-8.3 7.5z" />
        <circle class="st0" cx="-64.7" cy="49.3" r="2.4" />
    </symbol>
    <symbol id="dorbel_icon_stairs" viewBox="-132 44 57 44">
        <style>
        .st0 {
            fill: #6E6E6E;
        }
        </style>
        <path class="st0" d="M-78.8 44h-14.3c-2 0-2.9 1.5-2.9 3.6V55h-9c-2 0-3 1.2-3 3.3V65h-8.9c-2 0-3.1.8-3.1 2.8V74h-8.8c-2 0-3.2 1.3-3.2 3.3v7.1c0 2 1.2 3.6 3.2 3.6h49.9c2 0 3.9-1.5 3.9-3.6V47.6c0-2.1-1.7-3.6-3.8-3.6zm1.8 40c0 1-1.1 2-1.8 2h-49.9c-.7 0-1.3-.9-1.3-1.6v-7.1c0-.7.6-1.3 1.3-1.3h10.7v-8.2c0-.7.5-.8 1.2-.8h10.8v-8.7c0-.7.4-1.3 1.1-1.3H-94v-9.4c0-.7.2-1.6 1-1.6h14.3c.7 0 1.7.9 1.7 1.6V84z" />
    </symbol>
    <symbol id="dorbel_icon_upload-img-02" viewBox="0 0 113 113">
        <title>dorbel_icon_upload-img-02</title>
        <circle cx="56.5" cy="56.5" r="56.5" fill="#31124b" />
        <rect x="21" y="35" width="36" height="47" rx="3" ry="3" transform="rotate(-8.79 39.022 58.492)" fill="#ebd7ff" />
        <path fill="#996ebc" d="M20.97 40.667l29.7-4.5 4.35 28.71-29.7 4.5z" />
        <rect x="54" y="35" width="36" height="47" rx="3" ry="3" transform="rotate(-171.21 72.002 58.497)" fill="#ebd7ff" />
        <path fill="#996ebc" d="M85.518 69.196L55.87 64.612l4.432-28.66 29.647 4.585z" />
        <g>
            <rect x="34" y="28" width="44" height="58" rx="3" ry="3" fill="#fff" />
            <path fill="#996ebc" d="M37 72h22v2H37zM60.59 62.58A46.23 46.23 0 0 1 75 59.14V31H37v29.57a29.52 29.52 0 0 1 23.59 2.01zM37 76h26v2H37z" />
            <path d="M55.08 41a5 5 0 0 0-9.48 1H45a3 3 0 0 0 0 6h10a3.5 3.5 0 0 0 .08-7z" fill="#fff" />
            <path fill="none" d="M37 31h38v37H37z" />
            <path d="M67.7 68H75v-8.86a46.23 46.23 0 0 0-14.41 3.43A29.6 29.6 0 0 1 67.7 68z" fill="#31124b" />
            <path d="M60.59 62.58a29.52 29.52 0 0 0-23.59-2V68h30.7a29.6 29.6 0 0 0-7.11-5.42z" fill="#5c1598" />
        </g>
    </symbol>
    <symbol id="dorbel_logo" viewBox="0 0 100 28.9">
        <style>
        .st0 {
            fill-rule: evenodd;
            clip-rule: evenodd;
            fill: #31124B;
        }
        </style>
        <path class="st0" d="M15.9 0H10v3.5h1.6v7.2s-1.5-.4-2.5-.4c-1.4 0-9.2.2-9.2 9.1 0 1.7.6 9.4 10 9.4 4.3 0 5.9-1.1 5.9-1.1V3.5l.1-3.5zm-4.2 24.8s-.9.4-1.9.4-5.4-.2-5.4-6c0-5.1 4.3-5.3 5.1-5.3s2.2.3 2.2.3v10.6zm88.2-.9l-1.6-2.2c-.7 2.2-2.1 2.8-3.1 2.8-1.6 0-1.9-1.5-1.9-2.4V0h-5.9v3.5h1.7v17.7c-1.6 2.9-4.8 4.2-7.9 4.2-5.3 0-5.7-3.3-5.7-3.5 0 0 0-.1.1-.1.3.1 1.7.2 1.8.2 8.1 0 8.3-5.7 8.3-6.3 0-5.5-5.4-5.6-6-5.6-7.7 0-9 6.9-9 9.3 0 2.5.3 9.4 10.2 9.4 4.3 0 7.1-1.5 8.6-3 .7 1.6 2.3 2.7 4.5 2.7 4.2 0 6-3.4 6-4.4l-.1-.2zm-24.8-5.4c0-2.2 1.4-4.8 4-4.8.5 0 2.3.1 2.3 2 0 .4-.1 3.1-4.4 3.1-1.5 0-1.9-.2-1.9-.3zm-32.4-4.6c-.1.1-.1.1-.2.1s-.1-.2-.1-.2v-3h-4s0 3.5-2.9 5.1c-.3.1-.5.3-.8.4-.9-3.4-3.3-6.2-8.2-6.2-6.2 0-8.6 5.1-8.6 9.3 0 4.6 2.4 9.3 8.6 9.3 6 0 8.5-4.9 8.6-9.1 1.3-.4 2.4-.9 3.2-1.6l.1-.1v10.2h4.2v-6.4c0-.8.1-3.3 1.4-5 .7-1 1.8-1.9 3.3-1.9v2.8h3.5v-7c-.2-.2-1-.2-1.3-.2-4.6 0-6.7 3.4-6.8 3.5zM26.6 25.3c-3.2 0-4.2-3.3-4.2-5.8 0-2.4.9-5.7 4.2-5.7 2.2 0 3.3 1.5 3.8 3.3h-2.1v3.3c.5 0 1.1.1 1.7.1h.7c-.3 2.2-1.3 4.8-4.1 4.8zm33-15c-1.1 0-2.5.4-2.5.4V0h-5.8v3.5H53v24.2s1.6 1.1 5.9 1.1c9.3 0 10-7.7 10-9.4-.1-8.9-7.9-9.1-9.3-9.1zM59 25.1c-1 0-1.9-.4-1.9-.4V14.2s1.4-.3 2.2-.3c.8 0 5.1.2 5.1 5.3 0 5.8-4.4 5.9-5.4 5.9z" id="Shape_1" />
    </symbol>
    <symbol id="dorbel_marker" viewBox="-756 1708 86 86">
        <style>
        .st0 {
            opacity: 0.4;
            fill: #31124B;
            enable-background: new;
        }
        </style>
        <circle class="st0" cx="-713" cy="1751" r="43" />
    </symbol>
    <symbol id="dorbel_triangle_a" viewBox="0 -20 70 70">
        <path fill="#F09B0A" d="M0-20l70 70v-65.8c0-2.4-1.8-4.2-4.2-4.2H0z" />
    </symbol>
    <symbol id="dorbel_triangle_b" viewBox="-10 -10 70 70">
        <path fill="#2A80B9" d="M-10-10l70 70V-5.8c0-2.4-1.8-4.2-4.2-4.2H-10z" />
    </symbol>
    <symbol id="droppping-hand" viewBox="-702 1656.2 193.2 189.8">
        <style>
        .st0 {
            fill: #31124B;
        }
        </style>
        <path class="st0" d="M-653.8 1763.6h-.2c-5.3-.1-8-7-8.3-7.8l-.1-.3v-.4c0-.2-.1-23.9 19.2-30 16.4-5.2 16.4-15.5 16.4-15.9-.2-5.9-1.5-9.8-3.8-11.5-3.4-2.5-9.3-.9-15.5.7-5.8 1.5-11.7 3.1-16.9 1.9-3.5 8.7-12.1 13.1-14.9 14.3l-2.3 6.9c-2.1 6.9-5.3 11.1-9.7 12.5-5.8 1.8-11.1-2.3-11.3-2.5l-.8-.7.3-1.3c9.8-39.2 19.9-45.2 30.8-51.4.6-.4 1.2-.7 1.8-1.1 12.3-7.2 26.2-15.4 32.6-19.2 2.4-1.4 5.1-1.9 7.8-1.4 22.5 3.9 41.1 13.4 55.6 21.2 10.9 5.8 20.4 10.9 28.9 12.2 10.9 1.6 19.5-2.6 24.8-6.4 2.3-1.6 5.3-1.7 7.6-.1 2 1.4 3.1 3.8 2.9 6.2-.1 1.9-.2 3.9-.4 5.9-.5 9.1-1.2 19.4-1.4 29.2 0 1.8-.7 3.6-2 4.9-1.8 1.7-4.2 2.3-6.5 1.7-20-5.5-33.9-8.7-37.6-9.6-3.1 2.6-14.7 10.4-37.7 8.7-23.3-1.7-45.1 18.4-47.7 20.9-3.7 8.3-7.5 12.4-11.6 12.4zm-4.6-8.9c.8 1.8 2.6 4.8 4.6 4.8 1.1.1 4-.9 8.2-10.4l.2-.3.3-.3c1-1 24.6-24.2 51.3-22.2 24.8 1.8 35.3-8.2 35.4-8.3l.8-.8 1.1.2c.2 0 15.3 3.4 38.8 9.8.9.3 1.9 0 2.6-.7.5-.5.8-1.3.8-2 .2-9.9.8-20.3 1.4-29.4.1-2.1.3-4.2.4-6.2.1-1.1-.5-2-1.4-2.6-.9-.5-2-.5-2.8.2-5.9 4.2-15.5 8.9-27.7 7.1-9.2-1.4-18.9-6.6-30.2-12.6-15.8-8.2-33.3-17.5-56-21.1-.9-.1-1.8 0-2.6.5-5.1 3-20.4 12-33.9 20-.6.4-1.2.7-1.9 1.1-10 5.8-19.4 11.2-28.7 47.6 1.4.8 4 1.9 6.6 1.1 2.9-.9 5.4-4.3 7-9.8l2.9-8.7.9-.3c.1 0 11.2-4.3 14.1-14l.6-2.1 2.1.9c4.3 1.8 10.4.2 16.3-1.4 6.9-1.8 14-3.7 19-.1 3.4 2.5 5.2 7.3 5.5 14.7 0 .6.1 13.7-19.2 19.8-6.9 2-11.8 7-14.5 14.6-1.8 5-2 9.7-2 10.9z" id="hand" />
        <g id="key">
            <path class="st0" d="M-678.1 1822v1h4v-6h-4v3zm0 7v3h4v-6h-4v2z" />
            <path class="st0" d="M-681.6 1771c-10.2 0-18.5 8.3-18.5 18.5 0 7.5 4.5 14 11 16.9v32.1c0 4.1 3.4 7.5 7.5 7.5s7.5-3.4 7.5-7.5v-3.5h-4v3.5c0 1.9-1.6 3.5-3.5 3.5s-3.5-1.6-3.5-3.5v-30.8c1.1.2 2.3.3 3.5.3 1.2 0 2.4-.1 3.5-.3v6.3h4v-7.6c6.5-2.9 11-9.4 11-16.9 0-10.2-8.3-18.5-18.5-18.5zm7.5 30.9c-1.2.7-2.6 1.3-4 1.7-1.1.3-2.3.4-3.5.4-1.2 0-2.4-.2-3.5-.4-1.4-.4-2.8-.9-4-1.7-4.2-2.5-7-7.1-7-12.4 0-8 6.5-14.5 14.5-14.5s14.5 6.5 14.5 14.5c0 5.2-2.8 9.8-7 12.4z" />
            <path class="st0" d="M-681.6 1793c-4.1 0-7.5-3.4-7.5-7.5s3.4-7.5 7.5-7.5 7.5 3.4 7.5 7.5-3.4 7.5-7.5 7.5zm0-11c-1.9 0-3.5 1.6-3.5 3.5s1.6 3.5 3.5 3.5 3.5-1.6 3.5-3.5c0-2-1.6-3.5-3.5-3.5z" />
        </g>
    </symbol>
    <symbol id="recieving-hand" viewBox="0 0 198.2 190">
        <style>
        .st0 {
            fill: #31124B;
        }
        </style>
        <path class="st0" d="M20.5 189c-.4 0-.9 0-1.4-.1-2.4-.4-4.3-1.9-5.4-4.1-3.9-8.4-9.4-19.9-13-27-.9-1.8-1-3.9-.3-5.8s2.1-3.4 4-4.3c30.7-13.5 38-20.9 41.1-24.1.9-.9 1.6-1.6 2.4-2.1.3-.2.9-.7 1.5-1.2 4.3-3.6 14.4-12.1 35.6-4.4 13.8 5 24.5 8.4 31.1 10.3 3.7 1.1 7.6 1.7 11.5 1.9 5.5.3 11.8 1.2 14.7 5.5h.1c10.3-2.9 27.5-8.9 30.2-12.7 12.4-17.5 21.5-13.1 23.2-12 2 1.2 2.8 3.1 2 4.6-16.2 29.2-49.5 53.3-64.7 61.9-11.5 6.5-21.3 3.8-33.8.3-8.6-2.4-18.4-5.1-31.3-5.5-21.1-.8-35.6 10.2-42.4 16.8-1.4 1.2-3.2 2-5.1 2zm48.6-72.4c-9.2 0-14.2 4.2-17 6.6-.8.7-1.5 1.2-2.1 1.6-.4.2-.9.8-1.6 1.5-3.6 3.6-11 11.1-42.4 25-.9.4-1.5 1.1-1.8 2-.3.9-.3 1.8.2 2.7 3.6 7.2 9.1 18.7 13 27.1.5 1 1.4 1.7 2.5 1.9 1.1.2 2.2-.1 3-.9 7.3-7.1 22.8-18.8 45.3-17.9 13.3.5 23.3 3.2 32.2 5.7 12 3.3 20.7 5.7 30.8 0 17.2-9.7 47.9-33.5 62.8-59.5-.4-.3-1.3-.7-2.5-.8-2.6-.1-8.1 1.3-15.4 11.6-4.2 5.9-28.3 13-32.1 14.1 1.2 6-2.1 8.9-4.2 9.6-2.2.9-7.9 1-17.2.1-3.8-.3-9.1.4-15.2 1.3-12.2 1.8-27.4 4-39.9-1.5-1-.4-1.5-1.6-1-2.6.4-1 1.6-1.5 2.6-1 11.5 5 26 2.9 37.7 1.2 6.4-.9 11.9-1.7 16.2-1.3 11.2 1 14.4.4 15.1.3l.1-.1.4-.1c.4-.1 2.6-1.2 1.3-5.7-.9-3.3-4.6-4.9-12.2-5.3-4.2-.2-8.4-.9-12.4-2.1-6.6-1.9-17.4-5.3-31.3-10.4-6-2.3-10.8-3.1-14.9-3.1z" id="recieving-hand" />
        <g id="key">
            <path class="st0" d="M132.5 67h4v6h-4zm0 15h4v-6h-4v2z" />
            <path class="st0" d="M129 21c-10.2 0-18.5 8.3-18.5 18.5 0 7.5 4.5 14 11 16.9v32.1c0 4.1 3.4 7.5 7.5 7.5s7.5-3.4 7.5-7.5V85h-4v3.5c0 1.9-1.6 3.5-3.5 3.5s-3.5-1.6-3.5-3.5V57.7c1.1.2 2.3.3 3.5.3s2.4-.1 3.5-.3V64h4v-7.6c6.5-2.9 11-9.4 11-16.9 0-10.2-8.3-18.5-18.5-18.5zm7.5 30.9c-1.2.7-2.6 1.3-4 1.7-1.1.3-2.3.4-3.5.4s-2.4-.2-3.5-.4c-1.4-.4-2.8-.9-4-1.7-4.2-2.5-7-7.1-7-12.4 0-8 6.5-14.5 14.5-14.5s14.5 6.5 14.5 14.5c0 5.3-2.8 9.9-7 12.4z" />
            <path class="st0" d="M129 43c-4.1 0-7.5-3.4-7.5-7.5s3.4-7.5 7.5-7.5 7.5 3.4 7.5 7.5-3.4 7.5-7.5 7.5zm0-11c-1.9 0-3.5 1.6-3.5 3.5s1.6 3.5 3.5 3.5 3.5-1.6 3.5-3.5-1.6-3.5-3.5-3.5z" />
        </g>
    </symbol>
</svg>
